<svg xmlns="http://www.w3.org/2000/svg" xmlns:xlink="http://www.w3.org/1999/xlink" width="254" height="56" viewBox="0 0 254 56">
    <defs>
        <path id="a" d="M7.829 0h40.01c4.324 0 7.829 3.524 7.829 7.875v40.25c0 4.35-3.503 7.875-7.829 7.875H7.83C3.505 56 0 52.475 0 48.125V7.875C0 3.525 3.503 0 7.829 0z"/>
        <linearGradient id="b" x1="51.667%" x2="51.667%" y1="20.185%" y2="115%">
            <stop offset="0%" stop-color="#3B9FFF"/>
            <stop offset="100%" stop-color="#397EFF"/>
        </linearGradient>
        <path id="d" d="M7.829 0C3.503 0 0 3.526 0 7.875v40.25C0 52.475 3.505 56 7.829 56h40.01c4.326 0 7.829-3.526 7.829-7.875V7.875C55.668 3.524 52.163 0 47.839 0H7.83z"/>
        <linearGradient id="e" x1="50%" x2="50%" y1="0%" y2="94.157%">
            <stop offset="0%" stop-color="#3B9FFF"/>
            <stop offset="100%" stop-color="#397EFF"/>
        </linearGradient>
        <path id="g" d="M14.328 1.446L2.348 13.438c-1.087 1.09-.884 1.912-.884 1.912S.373 24.256.084 26.953c-.288 2.696 2.193 2.196 2.193 2.196s10.654-.957 11.538-1.121c.885-.163 1.094-.204 2.114-1.224l12.048-12.062c1.85-1.852-.193-3.579-.193-3.579l-9.598-9.608S17.366.551 16.192.551c-.558 0-1.196.226-1.864.895z"/>
        <path id="i" d="M.646 22.813c-.17.169-.113.14-.099.153.651.64 1.744.419 1.744.419s10.653-.957 11.538-1.12c.884-.164 1.093-.205 2.112-1.225L27.99 8.978c1.85-1.852-.192-3.579-.192-3.579L22.919.516.646 22.813z"/>
        <path id="k" d="M13.617.274a59.318 59.318 0 0 1-1.448 3.524c-1.282 2.86-2.802 5.718-4.548 8.378-2.295 3.495-4.806 6.372-7.505 8.42l1.753 2.34c2.996-2.274 5.718-5.394 8.181-9.146 1.84-2.802 3.431-5.795 4.774-8.788.47-1.047.874-2.021 1.216-2.897A43.622 43.622 0 0 0 16.46.98l-2.752-.96-.091.255z"/>
        <path id="m" d="M22.397.09H.277v24.575h2.912V3.02h17.752v18.54l.008.078c.007.12 0 .269-.023.395h-7.464v2.93h7.647c1.4 0 2.288-.88 2.613-2.093a4.421 4.421 0 0 0 .131-1.44V.089h-1.456z"/>
        <path id="o" d="M2.598.363a2.272 2.272 0 0 0-1.106.302C.797 1.062.37 1.797.37 2.712V19.5c0 1.024.633 1.667 1.46 1.976.358.132.681.184.944.197l.073.002h16.253c.906 0 1.613-.472 1.971-1.191a2.373 2.373 0 0 0 .251-1.041V3.011c0-1.06-.497-1.881-1.294-2.32a2.656 2.656 0 0 0-1.236-.328H2.598zM3.28 18.09V3.292H18.41v15.454H3.28v-.656z"/>
        <path id="q" d="M.2 3.02h4.573c-.013.597-.013.74-.013 2.333V16.936c-.006.32.03.784.14 1.336.173.87.492 1.738.994 2.554 1.475 2.393 4.176 3.812 8.183 3.812H36.612v-2.93H14.077c-3.027 0-4.78-.92-5.707-2.425a4.807 4.807 0 0 1-.7-2.318l.001-.988V2.837c0-1.04-.45-1.86-1.194-2.337a2.613 2.613 0 0 0-1.23-.408L.2.089v2.93z"/>
        <path id="s" d="M.72 16.334c-.058.08-.163.254-.267.472a2.915 2.915 0 0 0-.308 1.305c.02 1.8 1.608 2.587 4.072 2.35 1.481-.142 5.432-.546 11.1-1.131l.15-.016 7.961-.826 2.614-.272.732-.077.258-.027-.3-2.913-.258.027-.732.076-2.614.272c-2.706.282-5.418.563-7.958.826-.076.007-.076.007-.151.016C9.36 17 5.41 17.404 3.94 17.545c-.203.02-.386.03-.547.032L13.844 1.73 11.417.11.72 16.334z"/>
        <path id="u" d="M5.431.638c-.046.165-.103.358-.17.578-.196.634-.44 1.343-.734 2.108-.84 2.188-1.909 4.375-3.22 6.407-.26.401-.525.792-.8 1.172l2.362 1.715c.302-.42.595-.85.879-1.291 1.43-2.217 2.588-4.582 3.495-6.948.318-.828.583-1.599.798-2.293.13-.423.217-.733.262-.908L5.481.455a8.09 8.09 0 0 1-.05.183z"/>
        <path id="w" d="M5.178.638c-.046.165-.104.358-.171.578-.196.634-.44 1.343-.734 2.108-.84 2.188-1.909 4.375-3.22 6.407-.259.401-.525.792-.799 1.172l2.36 1.715c.304-.42.597-.85.88-1.291C4.927 9.11 6.083 6.745 6.99 4.379c.318-.828.583-1.599.798-2.293.13-.423.217-.733.262-.908L5.227.455l-.049.183z"/>
        <path id="y" d="M27.77.815c-2.613.377-6.77.78-12.031 1.195-3.33.262-6.9.512-10.47.742a736.368 736.368 0 0 1-4.416.273l-.341.02.165 2.924.345-.02.97-.058a816.17 816.17 0 0 0 13.974-.96c5.32-.42 9.525-.829 12.217-1.216 1.246-.18 2.164-.353 2.768-.534l-.83-2.807c-.433.129-1.237.281-2.35.441z"/>
        <path id="A" d="M.25.1v19.394c0 .14.016.325.056.546.064.357.182.716.372 1.063.562 1.029 1.603 1.664 3.005 1.664h11.263c.25 0 .623-.034 1.08-.13a6.661 6.661 0 0 0 2.198-.878 6.25 6.25 0 0 0 .964-.742c.7-.657 1.277-1.319 1.74-1.955.29-.398.483-.712.59-.915l-2.576-1.367c-.042.08-.16.272-.363.552a11.162 11.162 0 0 1-1.378 1.543c-.16.15-.332.282-.516.398a3.848 3.848 0 0 1-1.653.558l-.086.006H3.683c-.327 0-.398-.042-.453-.145a.743.743 0 0 1-.067-.198V.1H.25z"/>
        <path id="C" d="M.5.03v2.928h16.802c.075 0 .23.016.38.053V14.24c-.037 0-.129.015-.273.015H3.341l-.11.004a3.693 3.693 0 0 0-1.202.318c-.91.42-1.553 1.21-1.553 2.333V31.981c.01.23.037.422.097.646.095.354.249.706.48 1.04.644.93 1.719 1.477 3.134 1.477H18.87l.067-.006c.112-.01.269-.034.459-.075.312-.068.625-.168.932-.312 1.031-.486 1.746-1.363 1.746-2.612v-6.79H19.16v6.712c-.018.01-.042.024-.069.037a1.578 1.578 0 0 1-.379.117H4.187c-.476 0-.653-.09-.743-.221a.408.408 0 0 1-.057-.121V17.193a.258.258 0 0 1 .022-.004c.002 0 .003-.002.003-.005H17.41c1.222 0 2.164-.488 2.714-1.322a2.876 2.876 0 0 0 .47-1.442V2.685c0-1.28-.818-2.076-1.927-2.436a4.54 4.54 0 0 0-.922-.193 4.318 4.318 0 0 0-.442-.027H.499z"/>
        <path id="E" d="M.445.374v2.929h4.367c-.004 0 .044.008.092.022-.027.33-.027.354-.027 1.109V22.43l.015.106c.057.387.233.841.613 1.276.797.915 2.1 1.243 3.785.874 1.066-.233 1.877-.412 2.468-.543l.5-.112.146-.033-.642-2.857a7.336 7.336 0 0 0-.139.031l-.493.11c-.588.13-1.396.309-2.46.542-.403.088-.692.1-.881.068V3.28c0-1.23-.634-2.13-1.596-2.587a3.325 3.325 0 0 0-.918-.28 3.047 3.047 0 0 0-.463-.04H.445z"/>
    </defs>
    <g fill="none" fill-rule="evenodd">
        <g>
            <mask id="c" fill="#fff">
                <use xlink:href="#a"/>
            </mask>
            <path fill="url(#b)" d="M-572.09 497.65H535.181v-623.506H-572.091z" mask="url(#c)"/>
        </g>
        <g>
            <mask id="f" fill="#fff">
                <use xlink:href="#d"/>
            </mask>
            <path fill="url(#e)" d="M7.829 0C3.503 0 0 3.526 0 7.875v40.25C0 52.475 3.505 56 7.829 56h40.01c4.326 0 7.829-3.526 7.829-7.875V7.875C55.668 3.524 52.163 0 47.839 0H7.83z" mask="url(#f)"/>
        </g>
        <g transform="translate(14.994 10.97)">
            <mask id="h" fill="#fff">
                <use xlink:href="#g"/>
            </mask>
            <path fill="#FFF" d="M16.208-4.518L33.75 13.044 7.27 39.554l-17.543-17.562z" mask="url(#h)"/>
        </g>
        <g transform="translate(14.994 16.742)">
            <mask id="j" fill="#fff">
                <use xlink:href="#i"/>
            </mask>
            <path fill="#EBF4FF" d="M22.922-3.57l10.84 10.852L7.278 33.796l-10.84-10.852z" mask="url(#j)"/>
        </g>
        <path fill="#23314F" d="M63.123 17.412h34.482v-2.93H63.123zM70.491 31.784h21.621v-2.929h-21.62zM114.703 28.3h18.18v-2.93h-18.18zM114.703 34.397h18.18v-2.929h-18.18zM70.491 38.752h21.621v-2.93h-21.62z"/>
        <g transform="translate(61.707 9.237)">
            <mask id="l" fill="#fff">
                <use xlink:href="#k"/>
            </mask>
            <path fill="#23314F" d="M-2.768 25.822h22.11V-2.867h-22.11z" mask="url(#l)"/>
        </g>
        <g transform="translate(69.781 21.36)">
            <mask id="n" fill="#fff">
                <use xlink:href="#m"/>
            </mask>
            <path fill="#23314F" d="M-2.607 27.848h29.355V-2.797H-2.607z" mask="url(#n)"/>
        </g>
        <path fill="#23314F" d="M115.57 10.645l2.548 4.76 2.564-1.389-2.548-4.76zM125.973 14.175l2.517 1.472 2.842-4.92-2.517-1.47z"/>
        <path fill="#23314F" d="M111.669 16.54h23.982v-2.929H111.67z"/>
        <path fill="#23314F" d="M120.338 18.867l2.77.902 1.552-4.82-2.77-.902z"/>
        <g transform="translate(113.034 18.474)">
            <mask id="p" fill="#fff">
                <use xlink:href="#o"/>
            </mask>
            <path fill="#23314F" d="M-2.514 24.562h26.719V-2.523h-26.72z" mask="url(#p)"/>
        </g>
        <path fill="#23314F" d="M103 12.488l3.827 6.52 2.508-1.489-3.827-6.52z"/>
        <g transform="translate(101.5 21.36)">
            <mask id="r" fill="#fff">
                <use xlink:href="#q"/>
            </mask>
            <path fill="#23314F" d="M-2.684 27.524h42.178v-30.32H-2.684z" mask="url(#r)"/>
        </g>
        <path fill="#23314F" d="M102.133 43.65l2.176 1.947 4.997-5.649L107.13 38zM145.478 15.234h25.217v-2.929h-25.217zM141.143 26.558h33.396v-2.929h-33.396z"/>
        <g transform="translate(143.6 24.825)">
            <mask id="t" fill="#fff">
                <use xlink:href="#s"/>
            </mask>
            <path fill="#23314F" d="M-2.739 23.389h32.655V-2.776H-2.739z" mask="url(#t)"/>
        </g>
        <path fill="#23314F" d="M162.815 32.707l9.352 13.5 2.39-1.674-9.352-13.5z"/>
        <g transform="translate(178.778 9.237)">
            <mask id="v" fill="#fff">
                <use xlink:href="#u"/>
            </mask>
            <path fill="#23314F" d="M-2.375 15.505h13.562V-2.432H-2.375z" mask="url(#v)"/>
        </g>
        <g transform="translate(195.503 9.237)">
            <mask id="x" fill="#fff">
                <use xlink:href="#w"/>
            </mask>
            <path fill="#23314F" d="M-2.63 15.505h13.563V-2.432H-2.629z" mask="url(#x)"/>
        </g>
        <path fill="#23314F" d="M184.055 16.105h12.126v-2.93h-12.126zM201.393 16.105h13.585v-2.93h-13.585z"/>
        <path fill="#23314F" d="M187.089 14.792l2.755 6.295 2.665-1.18-2.755-6.296zM204.427 14.437l2.51 5.296 2.629-1.262-2.51-5.295z"/>
        <g transform="translate(180.509 20.206)">
            <mask id="z" fill="#fff">
                <use xlink:href="#y"/>
            </mask>
            <path fill="#23314F" d="M-2.371 8.856h36.206v-11.37H-2.371z" mask="url(#z)"/>
        </g>
        <path fill="#23314F" d="M178.853 35.47l.184 2.925 35.674-2.262-.182-2.924zM181.454 29.174l.202 2.922 29.4-2.062-.203-2.921z"/>
        <g transform="translate(193.773 23.093)">
            <mask id="B" fill="#fff">
                <use xlink:href="#A"/>
            </mask>
            <path fill="#23314F" d="M-2.632 25.653H24.4v-28.44H-2.632z" mask="url(#B)"/>
        </g>
        <path fill="#23314F" d="M220.464 12.638l5.65 5.662 2.055-2.075-5.65-5.662z"/>
        <g transform="translate(231.259 10.97)">
            <mask id="D" fill="#fff">
                <use xlink:href="#C"/>
            </mask>
            <path fill="#23314F" d="M-2.408 38.03h27.364V-2.856H-2.408z" mask="url(#D)"/>
        </g>
        <g transform="translate(217.418 20.206)">
            <mask id="F" fill="#fff">
                <use xlink:href="#E"/>
            </mask>
            <path fill="#23314F" d="M-2.438 27.722h17.725V-2.513H-2.438z" mask="url(#F)"/>
        </g>
    </g>
</svg>
