<svg xmlns="http://www.w3.org/2000/svg" xmlns:xlink="http://www.w3.org/1999/xlink" width="290" height="64" viewBox="0 0 290 64">
    <defs>
        <path id="a" d="M0 8.999C0 4.029 4 0 8.937 0H54.62c4.937 0 8.938 4.027 8.938 8.999V55c0 4.97-4 9-8.938 9H8.937C4.003 64 0 59.973 0 55V8.999z"/>
        <linearGradient id="b" x1="0%" x2="0%" y1=".001%" y2="1055.67%">
            <stop offset="0%" stop-color="#3B9FFF"/>
            <stop offset="100%" stop-color="#397EFF"/>
        </linearGradient>
        <path id="d" d="M8.937 0H54.62c4.937 0 8.938 4.027 8.938 8.999V55c0 4.97-4 9-8.938 9H8.937C4.003 64 0 59.973 0 55V8.999C0 4.029 4 0 8.937 0z"/>
        <linearGradient id="e" x1="0%" x2="0%" y1="0%" y2="1828.571%">
            <stop offset="0%" stop-color="#3B9FFF"/>
            <stop offset="100%" stop-color="#397EFF"/>
        </linearGradient>
        <path id="g" d="M8.937 0H54.62c4.937 0 8.938 4.027 8.938 8.999V55c0 4.97-4 9-8.938 9H8.937C4.003 64 0 59.973 0 55V8.999C0 4.029 4 0 8.937 0z"/>
        <linearGradient id="h" x1="50.001%" x2="50.001%" y1="0%" y2="94.157%">
            <stop offset="0%" stop-color="#3B9FFF"/>
            <stop offset="100%" stop-color="#397EFF"/>
        </linearGradient>
        <path id="j" d="M16.352 1.617L2.674 15.322c-1.241 1.245-1.01 2.185-1.01 2.185S.42 27.686.09 30.768c-.33 3.082 2.503 2.51 2.503 2.51s12.164-1.094 13.173-1.283c1.01-.185 1.25-.232 2.413-1.397 1.163-1.167 11.643-11.668 13.756-13.784 2.113-2.118-.22-4.092-.22-4.092L20.758 1.742S19.822.595 18.48.595c-.637 0-1.365.259-2.128 1.023z"/>
        <path id="l" d="M.732 25.777c-.194.194-.13.16-.113.175.743.73 1.99.479 1.99.479s12.163-1.094 13.173-1.28c1.01-.188 1.248-.234 2.412-1.4A38700.27 38700.27 0 0 0 31.949 9.966c2.113-2.117-.22-4.09-.22-4.09L26.162.295.73 25.777z"/>
        <path id="n" d="M16.354.584c-.091.25-.2.543-.33.873-.37.949-.81 2.01-1.322 3.154-1.465 3.268-3.2 6.535-5.194 9.574C6.888 18.181 4.021 21.47.94 23.81l2.001 2.674c3.42-2.598 6.529-6.164 9.342-10.452 2.1-3.204 3.916-6.623 5.45-10.044.536-1.196.998-2.31 1.388-3.31a53.534 53.534 0 0 0 .48-1.287L16.458.294c-.017.044-.051.144-.105.29z"/>
        <path id="p" d="M25.321.514H.066v28.087h3.325V3.863h20.268V25.05l.01.09c.007.137 0 .307-.026.451h-8.522v3.347h8.731c1.597 0 2.612-1.005 2.982-2.39a5.07 5.07 0 0 0 .152-1.607l-.002-.04V.515H25.32z"/>
        <path id="r" d="M1.11 5.913l2.876 1.684 3.243-5.623L4.356.294z"/>
        <path id="t" d="M.764.698h27.38v3.349H.765z"/>
        <path id="v" d="M.385 5.562L3.55 6.593l1.77-5.508L2.156.055z"/>
        <path id="x" d="M3.005.957a2.28 2.28 0 0 0-.446.046 2.61 2.61 0 0 0-.817.299C.95 1.757.46 2.595.46 3.642V22.828c0 1.169.723 1.905 1.668 2.256.408.153.777.211 1.077.226l.083.003h18.557c1.034 0 1.841-.54 2.251-1.362.13-.258.207-.519.25-.776.025-.16.037-.3.037-.414V3.983c0-1.21-.569-2.15-1.478-2.652a3.057 3.057 0 0 0-1.412-.374H3.005zm.78 20.26V4.305h17.272v17.66H3.785v-.748z"/>
        <path id="z" d="M0 2.843l4.37 7.45 2.862-1.7-4.369-7.452z"/>
        <path id="B" d="M.546.35h28.79v3.347H.547z"/>
        <path id="D" d="M.163.718h38.13v3.347H.163z"/>
        <path id="F" d="M1.507 19.61c-.067.09-.187.29-.306.54-.221.465-.358.956-.352 1.49.023 2.058 1.836 2.958 4.65 2.687 1.692-.164 6.203-.624 12.672-1.293l.173-.02a41478.259 41478.259 0 0 0 12.073-1.254l.837-.086.294-.032-.342-3.33c-.052.007-.052.007-.296.03l-.834.089c-.901.094-1.905.199-2.986.31l-9.086.945-.172.017c-6.46.668-10.969 1.129-12.649 1.291-.231.022-.44.035-.624.037L16.49 2.919l-2.772-1.85L1.507 19.61z"/>
        <path id="H" d="M.93 1.95l10.678 15.43 2.728-1.914L3.659.036z"/>
        <path id="J" d="M5.948 1c-.052.189-.118.41-.195.66a39.042 39.042 0 0 1-.838 2.41c-.959 2.5-2.18 5-3.676 7.323-.295.457-.6.904-.912 1.34l2.695 1.96c.345-.482.68-.973 1.005-1.477 1.633-2.534 2.954-5.237 3.99-7.94.363-.947.666-1.827.911-2.62.149-.485.247-.838.3-1.039L6.003.79a4.185 4.185 0 0 1-.056.21z"/>
        <path id="L" d="M6.486 1a37.519 37.519 0 0 1-1.033 3.07c-.96 2.5-2.18 5-3.678 7.323-.294.457-.598.904-.91 1.34l2.694 1.96c.347-.482.68-.973 1.005-1.477 1.633-2.534 2.954-5.237 3.991-7.94a41.31 41.31 0 0 0 .91-2.62c.15-.485.249-.838.3-1.039L6.541.79 6.486 1z"/>
        <path id="N" d="M.063.201h13.846V3.55H.063z"/>
        <path id="P" d="M.448.201h15.511V3.55H.448z"/>
        <path id="R" d="M.102 2.048l3.145 7.194L6.29 7.894 3.144.698z"/>
        <path id="T" d="M.486 1.642l2.867 6.053 3.002-1.441L3.488.2z"/>
        <path id="V" d="M31.145 1.168c-2.983.43-7.73.891-13.737 1.365-3.802.299-7.877.586-11.953.846-1.427.094-2.751.176-3.94.247l-1.103.067-.39.022.19 3.342c.069-.003.201-.012.393-.023l1.109-.065c1.193-.072 2.522-.155 3.954-.247 4.09-.264 8.18-.552 12-.852 6.074-.478 10.875-.947 13.948-1.389 1.422-.206 2.47-.402 3.161-.61l-.95-3.208c-.492.147-1.41.321-2.682.505z"/>
        <path id="X" d="M.975 2.824l.208 3.34 40.731-2.583-.208-3.342z"/>
        <path id="Z" d="M.518 2.485L.75 5.824l33.566-2.355-.23-3.34z"/>
        <path id="ab" d="M.026.22v22.165c0 .159.019.372.064.625.073.407.208.817.425 1.215.642 1.174 1.831 1.9 3.43 1.9h12.859c.287 0 .711-.038 1.233-.148a7.616 7.616 0 0 0 2.51-1.003c.39-.244.757-.527 1.1-.848.8-.752 1.46-1.508 1.988-2.235a9.04 9.04 0 0 0 .672-1.045l-2.94-1.563c-.047.09-.183.311-.414.631a12.84 12.84 0 0 1-1.573 1.764c-.183.171-.38.322-.59.453a4.334 4.334 0 0 1-1.429.568 4.398 4.398 0 0 1-.557.078H3.946c-.375 0-.455-.049-.519-.166a.82.82 0 0 1-.075-.226V.221H.026z"/>
        <path id="ad" d="M.529 3.015l6.453 6.47 2.345-2.37L2.876.642z"/>
        <path id="af" d="M.865 1.14v3.348H20.05c.087 0 .264.018.433.06v12.834c-.042 0-.145.017-.31.017H4.11l-.125.003c-.116.01-.272.03-.458.069a4.158 4.158 0 0 0-.915.296c-1.04.479-1.774 1.382-1.774 2.667v17.223c.011.264.043.482.112.737.107.406.283.808.548 1.191.734 1.063 1.961 1.688 3.578 1.688h16.761l.077-.008a5.023 5.023 0 0 0 1.587-.443c1.18-.555 1.995-1.556 1.995-2.984v-7.76h-3.325v7.672a1.35 1.35 0 0 1-.076.04c-.154.073-.33.117-.434.135H5.077c-.545 0-.748-.102-.85-.253a.436.436 0 0 1-.064-.138V20.757c.007-.003.017-.004.025-.005.001 0 .003-.002.003-.006h15.981c1.395 0 2.47-.557 3.098-1.51a3.292 3.292 0 0 0 .537-1.65V4.176c0-1.463-.934-2.373-2.2-2.784a5.214 5.214 0 0 0-1.054-.22 4.801 4.801 0 0 0-.504-.031H.865z"/>
        <path id="ah" d="M.984.663V4.01H5.97c-.003 0 .05.01.105.027-.03.376-.03.402-.03 1.267V25.871l.016.121c.067.442.266.961.701 1.458.91 1.047 2.4 1.42 4.322 1a1044.24 1044.24 0 0 0 3.387-.75l.168-.036-.733-3.266a896.224 896.224 0 0 1-3.53.78c-.461.1-.791.116-1.007.078V3.985c0-1.407-.724-2.436-1.821-2.958A3.845 3.845 0 0 0 5.97.663H.984z"/>
    </defs>
    <g fill="none" fill-rule="evenodd">
        <g>
            <mask id="c" fill="#fff">
                <use xlink:href="#a"/>
            </mask>
            <path fill="url(#b)" d="M0 64h63.937V0H0z" mask="url(#c)"/>
        </g>
        <g>
            <mask id="f" fill="#fff">
                <use xlink:href="#d"/>
            </mask>
            <path fill="url(#e)" d="M0 64h63.937V0H0z" mask="url(#f)"/>
        </g>
        <g>
            <mask id="i" fill="#fff">
                <use xlink:href="#g"/>
            </mask>
            <path fill="url(#h)" d="M8.937 0C4 0 0 4.03 0 8.999V55c0 4.973 4.003 9 8.937 9H54.62c4.938 0 8.938-4.03 8.938-9V8.999c0-4.972-4-8.999-8.938-8.999H8.937z" mask="url(#i)"/>
        </g>
        <g transform="translate(17.126 12.571)">
            <mask id="k" fill="#fff">
                <use xlink:href="#j"/>
            </mask>
            <path fill="#FFF" d="M-17.446 50.883h61.682v-61.797h-61.682z" mask="url(#k)"/>
        </g>
        <g transform="translate(17.126 19.429)">
            <mask id="m" fill="#fff">
                <use xlink:href="#l"/>
            </mask>
            <path fill="#EBF4FF" d="M-9.782 44.043H44.25v-54.131H-9.782z" mask="url(#m)"/>
        </g>
        <path fill="#FFF" d="M72.07 19.9h39.369v-3.35h-39.37z"/>
        <path fill="#FFF" d="M72.07 19.9h39.37v-3.35H72.07z"/>
        <path fill="#FFF" d="M72.07 19.9h39.37v-3.35H72.07zM80.482 36.325h24.685v-3.348H80.482z"/>
        <path fill="#FFF" d="M80.482 36.325h24.686v-3.348H80.482z"/>
        <path fill="#FFF" d="M80.482 36.325h24.686v-3.348H80.482zM130.96 32.343h20.757v-3.349H130.96zM130.96 39.31h20.757v-3.348H130.96zM80.482 44.288h24.685v-3.347H80.482z"/>
        <path fill="#FFF" d="M80.482 44.288h24.686v-3.347H80.482z"/>
        <path fill="#FFF" d="M80.482 44.288h24.686v-3.347H80.482zM86 10.87c-.092.25-.201.542-.33.873-.37.95-.81 2.01-1.323 3.154-1.463 3.267-3.2 6.535-5.193 9.575-2.62 3.994-5.486 7.282-8.568 9.624l2.002 2.673c3.42-2.6 6.527-6.165 9.34-10.453 2.1-3.202 3.917-6.623 5.45-10.043.536-1.197.999-2.31 1.388-3.31.137-.353.255-.666.355-.94.06-.165.102-.283.124-.348l-3.14-1.096a24.49 24.49 0 0 1-.106.29"/>
        <g transform="translate(69.646 10.286)">
            <mask id="o" fill="#fff">
                <use xlink:href="#n"/>
            </mask>
            <path fill="#FFF" d="M-106.181 355.429H548.03V-200H-106.18z" mask="url(#o)"/>
            <path fill="#FFF" d="M-3.425 30.857h27.401V-3.429H-3.425z" mask="url(#o)"/>
            <path fill="#FFF" d="M-2.353 29.782h25.245V-3.006H-2.353z" mask="url(#o)"/>
            <path fill="#FFF" d="M0 27.429h20.551V0H0z" mask="url(#o)"/>
            <path fill="#FFF" d="M-8.062 35.496H28.6V-8.72H-8.062z" mask="url(#o)"/>
        </g>
        <path fill="#FFF" d="M105.243 24.515H79.988V52.6h3.324V27.863h20.268v21.189l.01.088c.008.138 0 .307-.027.451h-8.522v3.349h8.733c1.597 0 2.61-1.006 2.982-2.391.15-.564.181-1.112.151-1.607 0-.014 0-.026-.002-.04V24.515h-1.662z"/>
        <g transform="translate(79.921 24)">
            <mask id="q" fill="#fff">
                <use xlink:href="#p"/>
            </mask>
            <path fill="#FFF" d="M-116.457 341.714h654.213v-555.428h-654.213z" mask="url(#q)"/>
            <path fill="#FFF" d="M-3.425 33.143h34.252V-3.43H-3.425z" mask="url(#q)"/>
            <path fill="#FFF" d="M-3.227 32.238h33.515V-2.785H-3.227z" mask="url(#q)"/>
            <path fill="#FFF" d="M0 29.714h27.402V0H0z" mask="url(#q)"/>
            <path fill="#FFF" d="M-8.935 37.952h44.932V-8.499H-8.935z" mask="url(#q)"/>
        </g>
        <g fill="#FFF">
            <path d="M131.95 12.165l2.909 5.441 2.927-1.587-2.909-5.44zM143.827 16.2l2.875 1.682 3.244-5.622-2.874-1.68"/>
        </g>
        <g transform="translate(142.717 10.286)">
            <mask id="s" fill="#fff">
                <use xlink:href="#r"/>
            </mask>
            <path fill="#FFF" d="M-179.252 355.429h654.213V-200h-654.213z" mask="url(#s)"/>
            <path fill="#FFF" d="M-4.598 13.31h17.536V-5.421H-4.598z" mask="url(#s)"/>
        </g>
        <path fill="#FFF" d="M127.496 18.904h27.381v-3.349h-27.38z"/>
        <g transform="translate(126.732 14.857)">
            <mask id="u" fill="#fff">
                <use xlink:href="#t"/>
            </mask>
            <path fill="#FFF" d="M-163.268 350.857h654.213V-204.57h-654.213z" mask="url(#u)"/>
        </g>
        <path fill="#FFF" d="M137.394 21.562l3.163 1.03 1.771-5.507-3.164-1.03z"/>
        <g transform="translate(137.008 16)">
            <mask id="w" fill="#fff">
                <use xlink:href="#v"/>
            </mask>
            <path fill="#FFF" d="M-173.543 349.714h654.212v-555.428h-654.212z" mask="url(#w)"/>
        </g>
        <path fill="#FFF" d="M132.021 21.528a2.38 2.38 0 0 0-.447.046 2.589 2.589 0 0 0-.816.3c-.794.453-1.282 1.293-1.282 2.339V43.4c0 1.17.722 1.904 1.667 2.256.409.152.778.212 1.078.227l.083.002H150.861c1.034 0 1.841-.54 2.25-1.361a2.715 2.715 0 0 0 .287-1.19v-18.78c0-1.21-.568-2.149-1.478-2.65a3.043 3.043 0 0 0-1.41-.376H132.02zm.779 20.26V24.876h17.273v17.661H132.8v-.75z"/>
        <g transform="translate(129.016 20.571)">
            <mask id="y" fill="#fff">
                <use xlink:href="#x"/>
            </mask>
            <path fill="#FFF" d="M-165.551 345.143H488.66v-555.429H-165.55z" mask="url(#y)"/>
            <path fill="#FFF" d="M-3.425 29.714h31.968V-3.429H-3.425z" mask="url(#y)"/>
            <path fill="#FFF" d="M-2.831 28.613h30.505V-2.342H-2.83z" mask="url(#y)"/>
            <path fill="#FFF" d="M0 26.286h25.118V0H0z" mask="url(#y)"/>
        </g>
        <path fill="#FFF" d="M117.598 14.272l4.37 7.451 2.862-1.702-4.368-7.45z"/>
        <g transform="translate(117.598 11.429)">
            <mask id="A" fill="#fff">
                <use xlink:href="#z"/>
            </mask>
            <path fill="#FFF" d="M-154.134 354.286H500.08v-555.429h-654.213z" mask="url(#A)"/>
        </g>
        <path fill="#FFF" d="M116.114 27.863h5.222c-.016.684-.016.847-.016 2.668V43.767c-.006.367.034.896.161 1.527a8.81 8.81 0 0 0 1.135 2.919c1.683 2.736 4.768 4.357 9.342 4.357H157.687v-3.348h-25.729c-3.455 0-5.458-1.052-6.516-2.771a5.49 5.49 0 0 1-.701-1.812 5.405 5.405 0 0 1-.087-.618 3.337 3.337 0 0 1-.01-.22V27.655c0-1.188-.514-2.126-1.364-2.67a2.995 2.995 0 0 0-1.404-.467l-5.762-.002v3.348z"/>
        <path fill="#FFF" d="M116.609 49.886l2.483 2.225 5.707-6.456-2.485-2.226zM166.097 17.41h28.791v-3.347h-28.791z"/>
        <g transform="translate(165.551 13.714)">
            <mask id="C" fill="#fff">
                <use xlink:href="#B"/>
            </mask>
            <path fill="#FFF" d="M-202.087 352h654.213v-555.429h-654.213z" mask="url(#C)"/>
            <path fill="#FFF" d="M-5.163 9.41h40.208V-5.366H-5.163z" mask="url(#C)"/>
        </g>
        <path fill="#FFF" d="M161.148 30.352h38.129v-3.347h-38.13z"/>
        <g transform="translate(160.984 26.286)">
            <mask id="E" fill="#fff">
                <use xlink:href="#D"/>
            </mask>
            <path fill="#FFF" d="M-197.52 339.429h654.213V-216H-197.52z" mask="url(#E)"/>
            <path fill="#FFF" d="M-5.545 9.78H44V-4.994H-5.545z" mask="url(#E)"/>
        </g>
        <path fill="#FFF" d="M164.775 47.039c-.067.09-.188.289-.306.539-.22.466-.359.957-.352 1.49.024 2.059 1.836 2.958 4.65 2.687 1.691-.162 6.202-.624 12.672-1.292l.174-.02 9.088-.943c1.081-.113 2.085-.218 2.983-.31l.837-.087.295-.032-.343-3.33-.295.031-.836.087c-.9.094-1.903.199-2.983.31l-9.088.945-.172.018c-6.459.669-10.969 1.13-12.648 1.29-.232.022-.44.035-.625.037l11.933-18.112-2.771-1.85-12.213 18.542z"/>
        <g transform="translate(163.268 27.429)">
            <mask id="G" fill="#fff">
                <use xlink:href="#F"/>
            </mask>
            <path fill="#FFF" d="M-199.803 338.286h654.212v-555.429h-654.212z" mask="url(#G)"/>
            <path fill="#FFF" d="M-3.425 28.571h38.819V-2.286h-38.82z" mask="url(#G)"/>
            <path fill="#FFF" d="M-2.442 27.673H34.84V-2.23H-2.442z" mask="url(#G)"/>
            <path fill="#FFF" d="M0 25.143h31.969V0H0z" mask="url(#G)"/>
            <path fill="#FFF" d="M-8.15 33.387h48.7V-7.945h-48.7z" mask="url(#G)"/>
        </g>
        <path fill="#FFF" d="M185.891 37.38l10.678 15.428 2.728-1.913-10.677-15.43z"/>
        <g transform="translate(184.96 35.429)">
            <mask id="I" fill="#fff">
                <use xlink:href="#H"/>
            </mask>
            <path fill="#FFF" d="M-221.496 330.286h654.213v-555.429h-654.213z" mask="url(#I)"/>
            <path fill="#FFF" d="M-4.778 23.095h24.823V-5.677H-4.778z" mask="url(#I)"/>
        </g>
        <path fill="#FFF" d="M210.319 11.286c-.053.188-.12.409-.196.66a38.297 38.297 0 0 1-.838 2.41c-.958 2.5-2.178 5-3.676 7.322-.296.458-.598.905-.912 1.34l2.695 1.96c.345-.48.68-.973 1.004-1.476 1.634-2.534 2.955-5.237 3.991-7.94a41.31 41.31 0 0 0 .91-2.62c.15-.485.25-.84.3-1.04l-3.223-.825c-.006.03-.026.1-.055.209"/>
        <g transform="translate(204.37 10.286)">
            <mask id="K" fill="#fff">
                <use xlink:href="#J"/>
            </mask>
            <path fill="#FFF" d="M-240.906 355.429h654.213V-200h-654.213z" mask="url(#K)"/>
            <path fill="#FFF" d="M-3.425 18.286h15.984V-3.43H-3.425z" mask="url(#K)"/>
            <path fill="#FFF" d="M-2.965 17.99H12.52V-2.508H-2.965z" mask="url(#K)"/>
            <path fill="#FFF" d="M0 14.857h10.276V0H0z" mask="url(#K)"/>
            <path fill="#FFF" d="M-8.674 23.705h26.902V-8.223H-8.674z" mask="url(#K)"/>
        </g>
        <path fill="#FFF" d="M229.124 11.286c-.053.188-.119.409-.195.66a38.297 38.297 0 0 1-.838 2.41c-.96 2.5-2.18 5-3.678 7.322-.294.458-.598.905-.91 1.34l2.695 1.96c.345-.48.68-.973 1.004-1.476 1.634-2.534 2.954-5.237 3.991-7.94a41.31 41.31 0 0 0 .91-2.62c.15-.485.249-.84.3-1.04l-3.223-.825-.056.209"/>
        <g transform="translate(222.638 10.286)">
            <mask id="M" fill="#fff">
                <use xlink:href="#L"/>
            </mask>
            <path fill="#FFF" d="M-259.173 355.429h654.212V-200h-654.212z" mask="url(#M)"/>
            <path fill="#FFF" d="M-3.425 18.286H13.7V-3.43H-3.425z" mask="url(#M)"/>
            <path fill="#FFF" d="M-2.427 17.99h15.485V-2.508H-2.427z" mask="url(#M)"/>
            <path fill="#FFF" d="M0 14.857h10.276V0H0z" mask="url(#M)"/>
            <path fill="#FFF" d="M-8.136 23.705h26.902V-8.223H-8.136z" mask="url(#M)"/>
        </g>
        <path fill="#FFF" d="M210.142 18.406h13.844v-3.348h-13.844z"/>
        <g transform="translate(210.079 14.857)">
            <mask id="O" fill="#fff">
                <use xlink:href="#N"/>
            </mask>
            <path fill="#FFF" d="M-246.614 350.857h654.212V-204.57h-654.212z" mask="url(#O)"/>
            <path fill="#FFF" d="M-5.646 9.263h25.262V-5.513H-5.646z" mask="url(#O)"/>
        </g>
        <path fill="#FFF" d="M229.937 18.406h15.51v-3.348h-15.51z"/>
        <g transform="translate(229.488 14.857)">
            <mask id="Q" fill="#fff">
                <use xlink:href="#P"/>
            </mask>
            <path fill="#FFF" d="M-266.024 350.857H388.19V-204.57h-654.213z" mask="url(#Q)"/>
            <path fill="#FFF" d="M-5.26 9.263h26.928V-5.513H-5.26z" mask="url(#Q)"/>
        </g>
        <path fill="#FFF" d="M213.605 16.905l3.146 7.194 3.043-1.348-3.146-7.196z"/>
        <g transform="translate(213.504 14.857)">
            <mask id="S" fill="#fff">
                <use xlink:href="#R"/>
            </mask>
            <path fill="#FFF" d="M-250.04 350.857h654.213V-204.57h-654.212z" mask="url(#S)"/>
            <path fill="#FFF" d="M-5.607 14.957h17.605V-5.016H-5.607z" mask="url(#S)"/>
        </g>
        <path fill="#FFF" d="M233.4 16.5l2.866 6.052 3.002-1.441-2.867-6.053z"/>
        <g transform="translate(232.913 14.857)">
            <mask id="U" fill="#fff">
                <use xlink:href="#T"/>
            </mask>
            <path fill="#FFF" d="M-269.449 350.857h654.213V-204.57H-269.45z" mask="url(#U)"/>
            <path fill="#FFF" d="M-5.221 13.41h17.285V-5.514H-5.221z" mask="url(#U)"/>
        </g>
        <path fill="#FFF" d="M237.8 24.025c-2.985.43-7.73.891-13.738 1.364-3.802.3-7.878.586-11.953.848a760.149 760.149 0 0 1-5.043.312c-.192.012-.322.02-.39.023l.19 3.343.393-.024 1.109-.065c1.193-.072 2.522-.156 3.953-.247 4.09-.264 8.18-.551 12-.852 6.075-.478 10.875-.946 13.949-1.388 1.422-.206 2.47-.404 3.16-.61l-.949-3.21c-.493.149-1.411.323-2.682.506"/>
        <g transform="translate(206.654 22.857)">
            <mask id="W" fill="#fff">
                <use xlink:href="#V"/>
            </mask>
            <path fill="#FFF" d="M-243.189 342.857h654.213V-212.57H-243.19z" mask="url(#W)"/>
            <path fill="#FFF" d="M-3.425 11.429h42.244V-3.43H-3.425z" mask="url(#W)"/>
            <path fill="#FFF" d="M-3.269 10.357H38.07V-2.637H-3.27z" mask="url(#W)"/>
            <path fill="#FFF" d="M0 8h35.394V0H0z" mask="url(#W)"/>
            <path fill="#FFF" d="M-8.977 16.07h52.754V-8.35H-8.977z" mask="url(#W)"/>
        </g>
        <path fill="#FFF" d="M204.203 40.538l.209 3.342 40.73-2.585-.208-3.342z"/>
        <g transform="translate(203.228 37.714)">
            <mask id="Y" fill="#fff">
                <use xlink:href="#X"/>
            </mask>
            <path fill="#FFF" d="M-239.764 328H414.45v-555.429h-654.213z" mask="url(#Y)"/>
            <path fill="#FFF" d="M-4.734 11.88h52.357V-5.475H-4.734z" mask="url(#Y)"/>
        </g>
        <path fill="#FFF" d="M207.172 33.341l.23 3.34 33.566-2.356-.23-3.339z"/>
        <g transform="translate(206.654 30.857)">
            <mask id="aa" fill="#fff">
                <use xlink:href="#Z"/>
            </mask>
            <path fill="#FFF" d="M-243.189 334.857h654.213V-220.57H-243.19z" mask="url(#aa)"/>
            <path fill="#FFF" d="M-5.19 11.538h45.213V-5.585H-5.19z" mask="url(#aa)"/>
        </g>
        <path fill="#FFF" d="M221.523 26.506v22.165c0 .159.017.371.064.624.073.408.208.818.423 1.215.643 1.174 1.832 1.901 3.432 1.901h12.859c.286 0 .71-.039 1.233-.148a7.591 7.591 0 0 0 2.51-1.004c.39-.244.756-.527 1.1-.848.8-.75 1.458-1.507 1.986-2.234.331-.456.553-.814.674-1.046l-2.94-1.562c-.05.09-.184.31-.416.63a12.63 12.63 0 0 1-1.573 1.764c-.181.172-.379.323-.588.454a4.368 4.368 0 0 1-1.887.639c-.067.006-.102.007-.1.007h-12.858c-.374 0-.454-.05-.518-.166a.842.842 0 0 1-.076-.226V26.506h-3.325z"/>
        <g transform="translate(221.496 26.286)">
            <mask id="ac" fill="#fff">
                <use xlink:href="#ab"/>
            </mask>
            <path fill="#FFF" d="M-258.031 339.429H396.18V-216H-258.03z" mask="url(#ac)"/>
            <path fill="#FFF" d="M-3.425 29.714h31.968V-3.429H-3.425z" mask="url(#ac)"/>
            <path fill="#FFF" d="M-3.264 29.424H27.6V-3.078H-3.264z" mask="url(#ac)"/>
            <path fill="#FFF" d="M0 26.286h25.118V0H0z" mask="url(#ac)"/>
            <path fill="#FFF" d="M-8.973 35.138H33.31v-43.93H-8.973z" mask="url(#ac)"/>
        </g>
        <path fill="#FFF" d="M251.71 14.444l6.452 6.47 2.346-2.372-6.451-6.47z"/>
        <g transform="translate(251.181 11.429)">
            <mask id="ae" fill="#fff">
                <use xlink:href="#ad"/>
            </mask>
            <path fill="#FFF" d="M-287.717 354.286h654.213v-555.429h-654.213z" mask="url(#ae)"/>
            <path fill="#FFF" d="M-5.179 15.2h20.214V-5.07H-5.179z" mask="url(#ae)"/>
        </g>
        <path fill="#FFF" d="M264.605 12.57v3.347h19.184c.087 0 .263.017.434.06V28.81c-.041 0-.147.016-.31.016H267.85l-.125.004a4.209 4.209 0 0 0-1.372.363c-1.04.48-1.774 1.384-1.774 2.668v17.225c.01.262.042.482.11.736.108.406.284.808.549 1.19.734 1.063 1.961 1.688 3.578 1.688H285.578l.076-.008a4.976 4.976 0 0 0 1.588-.442c1.179-.554 1.994-1.557 1.994-2.985v-7.76h-3.324V49.178a1.52 1.52 0 0 1-.078.04 1.854 1.854 0 0 1-.433.136h-16.584c-.546 0-.746-.103-.85-.254a.436.436 0 0 1-.064-.138V32.186a.199.199 0 0 1 .025-.006c.002 0 .003-.002.003-.006h15.981c1.395 0 2.47-.556 3.099-1.51a3.302 3.302 0 0 0 .536-1.649v-13.41c0-1.464-.934-2.372-2.2-2.785a5.283 5.283 0 0 0-1.558-.25h-19.184z"/>
        <g transform="translate(263.74 11.429)">
            <mask id="ag" fill="#fff">
                <use xlink:href="#af"/>
            </mask>
            <path fill="#FFF" d="M-300.276 354.286h654.213v-555.429h-654.213z" mask="url(#ag)"/>
            <path fill="#FFF" d="M-3.425 44.571h33.11V-2.286h-33.11z" mask="url(#ag)"/>
            <path fill="#FFF" d="M-2.455 44.571H28.79V-2.158H-2.455z" mask="url(#ag)"/>
            <path fill="#FFF" d="M0 42.286h26.26V0H0z" mask="url(#ag)"/>
            <path fill="#FFF" d="M-8.163 50.286h42.66V-7.872h-42.66z" mask="url(#ag)"/>
        </g>
        <path fill="#FFF" d="M248.741 23.52v3.347h4.986c-.005 0 .05.01.104.026-.03.377-.03.404-.03 1.268V48.728l.017.122c.065.442.265.96.7 1.458.91 1.046 2.399 1.42 4.322.998 1.217-.266 2.143-.471 2.817-.62l.57-.128.168-.037-.733-3.265a2.855 2.855 0 0 0-.159.035l-.563.126c-.67.15-1.593.352-2.807.62-.461.1-.791.113-1.007.076V26.84c0-1.405-.725-2.435-1.822-2.956a3.756 3.756 0 0 0-1.048-.319 3.411 3.411 0 0 0-.53-.046h-4.985z"/>
        <g transform="translate(247.756 22.857)">
            <mask id="ai" fill="#fff">
                <use xlink:href="#ah"/>
            </mask>
            <path fill="#FFF" d="M-284.291 342.857H369.92V-212.57H-284.29z" mask="url(#ai)"/>
            <path fill="#FFF" d="M-3.425 32h21.693V-3.429H-3.425z" mask="url(#ai)"/>
            <path fill="#FFF" d="M-2.307 31.919H17.93V-2.637H-2.307z" mask="url(#ai)"/>
            <path fill="#FFF" d="M0 29.714h14.843V0H0z" mask="url(#ai)"/>
            <path fill="#FFF" d="M-8.016 37.633H23.64V-8.35H-8.016z" mask="url(#ai)"/>
        </g>
    </g>
</svg>
