<svg width="580" height="400" xmlns="http://www.w3.org/2000/svg">
 <!-- Created with Method Draw - http://github.com/duopixel/Method-Draw/ -->
 <g>
  <title>background</title>
  <rect fill="#fff" id="canvas_background" height="402" width="582" y="-1" x="-1"/>
  <g display="none" overflow="visible" y="0" x="0" height="100%" width="100%" id="canvasGrid">
   <rect fill="url(#gridpattern)" stroke-width="0" y="0" x="0" height="100%" width="100%"/>
  </g>
 </g>
 <g>
  <title>Layer 1</title>
  <path id="svg_3" d="m151.849151,32.715733c0,0 0,-3.460891 2.109689,-5.701295c1.208933,-1.265711 5.069773,-1.909001 5.069773,-1.909001c0,0 4.146041,-0.930536 9.170293,-0.732875c3.892455,0.152479 8.925468,1.438936 8.925468,1.438936c0,0 5.561262,0.085075 7.469871,1.824049c2.330192,2.13819 -1.348746,4.63222 -1.348746,4.63222c0,0 0.488058,1.455336 2.365114,2.677955c1.546456,1.005115 4.555432,1.836759 4.555432,1.836759c0,0 0.570279,0.252601 0.997192,0.73308c0.377837,0.438454 0.598217,1.124835 0.598217,1.124835c0,0 1.854387,0.827052 1.98213,1.85197c0.141651,1.095725 -1.446774,2.397515 -1.446774,2.397515c0,0 -0.724183,2.025317 -2.039783,3.4875c-0.848434,0.949273 -2.492918,1.556483 -2.492918,1.556483c0,0 -3.768143,1.929911 -8.370812,2.37558c-3.481288,0.335995 -8.129479,-0.78187 -8.129479,-0.78187c0,0 2.387967,4.556575 2.118573,9.198225c0.381575,7.285493 -8.731985,13.435492 -12.630627,21.640696c-1.376806,2.472053 -0.528311,5.345374 -0.528311,5.345374c0,0 -0.39536,7.211283 -1.850834,13.632538c-1.186141,5.27674 -3.463826,9.992763 -3.463826,9.992763c0,0 1.3939,2.85036 1.054906,4.688144c1.181424,0.468466 6.236003,2.518465 5.592815,4.157563c-0.965088,0.103402 -2.751835,-0.530499 -2.751835,-0.530499c0,0 -0.818658,0.581667 -1.82988,0.670145c-0.743421,0.069659 -1.437951,0.168756 -1.763405,-0.339849c-1.742329,0.252355 -4.83181,-0.67937 -4.83181,-0.67937c0,0 -2.377368,-1.154027 -3.498749,-2.382304c-0.60704,-0.658542 -1.564714,-0.048462 -0.3219,-1.775341c1.242875,-1.726879 -0.127682,-2.068203 -0.127682,-2.068203c0,0 -2.778058,0.886338 -4.628892,0.832915c-0.90964,-0.030258 -1.595409,-1.023606 -1.595409,-1.023606c0,0 0.334092,-2.073123 0.113651,-3.890079c-0.325331,-2.584844 -1.249063,-5.178955 -1.249063,-5.178955c0,0 -2.225179,-1.593875 -3.960584,-6.162134c-1.20011,-3.153555 -1.327792,-7.575322 -2.167526,-10.831336c-0.839734,-3.311856 -2.526309,-5.487972 -2.387906,-5.437255c-4.044215,3.434282 -9.114356,4.249485 -9.114356,4.249485c0,0 0.827481,5.218643 0.131235,9.473827c-0.668307,4.10291 -2.856787,7.246174 -2.856787,7.246174c0,0 -2.313466,3.784791 -3.007199,6.347085c-0.493756,1.823844 0.09858,2.27103 0.549326,2.724367c2.748282,2.144586 15.001807,-1.750413 17.912019,1.053905c0.29917,0.111725 0.932432,0.637427 1.665438,0.93521c0.778466,0.31652 2.32143,1.880055 1.856103,2.056846c-0.386599,0.153545 -1.217572,-0.020951 -1.217572,-0.020951c0,0 0.223872,0.956161 -0.290409,1.305194c-0.549326,0.355921 -1.82988,0.113898 -1.82988,0.113898c0,0 -0.834465,-0.442021 -2.400159,-0.567563c-1.490458,-0.118695 -3.727951,0.079007 -3.727951,0.079007c0,0 -6.079341,-1.47846 -11.444547,0.967928c-2.829339,0.987362 -4.990983,0.993471 -7.856531,1.230697c-1.595409,0.132635 -2.317938,-0.695565 -2.317938,-0.695565c0,0 -0.526595,0.467646 -1.58144,0.872439c-1.201826,0.451328 -2.484157,1.116676 -2.484157,1.116676c0,0 0.601771,0.49569 1.569248,0.846855c0.610532,0.214184 1.763344,0.349115 1.763344,0.349115c0,0 4.453115,0.461742 8.661282,-0.43501c0.698022,-0.027921 5.799226,1.802975 6.462264,2.193827c0.50558,0.293191 -0.492837,1.197815 -1.340046,1.433196c-4.326842,1.711381 -7.390224,-0.816966 -14.320511,0.937711c-6.395421,0.51742 -9.039119,-0.065231 -11.171661,-1.098144c-1.415221,-0.684085 -1.53071,-2.145201 -1.53071,-2.145201c0,0 -2.048544,-1.831101 -2.21121,-3.534158c-0.070029,-0.751407 2.704537,-3.424729 3.864394,-4.788061c0.955162,-1.112084 2.076544,-2.473119 2.076544,-2.473119c0,0 0.895671,-1.265629 1.502711,-2.88029c0.453074,-1.172764 0.537072,-2.556923 1.095159,-3.680692c0.668246,-1.377436 1.854326,-2.466108 1.854326,-2.466108c0,0 -3.208402,-1.700762 -5.666275,-3.829645c-3.042183,-2.644171 -5.444119,-5.815275 -5.444119,-5.815275c0,0 -7.917738,-3.913326 -13.830676,-8.621109c-3.74192,-2.972335 -6.525247,-7.568434 -6.525247,-7.568434c0,0 -1.38667,0.965017 -3.353606,2.185873c-13.975819,8.674696 -15.094444,26.318754 -19.489906,45.438033c-2.859176,12.43665 -9.682919,20.375273 -14.110669,22.950769c-4.030613,2.347495 -9.088072,2.468527 -9.088072,2.468527c0,0 -3.161164,0.03485 -3.521479,-0.400201c-0.346407,-0.402579 2.12372,-1.284366 2.12372,-1.284366c0,0 4.53313,-1.552752 7.377174,-4.010988c11.909446,-10.293744 13.109556,-40.141573 18.44468,-52.79708c2.696143,-6.395629 6.330968,-23.506647 31.694662,-32.845666c18.431017,-6.7864 58.266615,-11.365976 68.245518,-19.831777c2.004861,-1.700885 4.177594,-3.458513 4.177594,-3.458513z" stroke-opacity="null" stroke-width="1.5" stroke="#000" fill="#28cccc"/>
 </g>
</svg>