<svg style="position: absolute; width: 0; height: 0; overflow: hidden;" version="1.1" xmlns="http://www.w3.org/2000/svg" xmlns:xlink="http://www.w3.org/1999/xlink">
<defs>
<symbol id="icon-top" viewBox="0 0 32 32">
<title></title>
<path d="M29.295 17.56l-11.498-12.345c-0.467-0.502-1.122-0.79-1.797-0.79s-1.331 0.288-1.797 0.789l-11.498 12.345c-0.834 0.896-0.61 1.714-0.475 2.025s0.581 1.032 1.805 1.032h4.789c0.013 0 0.028 0.016 0.028 0.028v8.81c0.002 1.405 1.14 2.543 2.545 2.545h9.206c1.405-0.001 2.543-1.14 2.545-2.545v-8.809c0-0.013 0.016-0.028 0.028-0.028h4.789c1.223 0 1.669-0.722 1.805-1.032 0.135-0.312 0.36-1.13-0.475-2.025zM3.629 2.517h24.742c0.695 0 1.259-0.564 1.259-1.259s-0.564-1.259-1.259-1.259h-24.742c-0.695 0-1.259 0.564-1.259 1.259s0.564 1.259 1.259 1.259v0z"></path>
</symbol>
<symbol id="icon-video" viewBox="0 0 32 32">
<title></title>
<path d="M16 0.266c-8.69 0-15.734 7.044-15.734 15.734s7.044 15.734 15.734 15.734 15.734-7.044 15.734-15.734-7.044-15.734-15.734-15.734zM21.374 17.128l-8.344 4.786c-0.624 0.356-1.418 0.138-1.773-0.485-0.11-0.193-0.169-0.411-0.171-0.633v-9.596c0-0.978 1.094-1.604 1.944-1.114l8.344 4.786c0.846 0.49 0.846 1.74 0 2.256z"></path>
</symbol>
<symbol id="icon-help" viewBox="0 0 32 32">
<title></title>
<path d="M16 31.887c-8.806 0-15.943-7.137-15.943-15.943s7.137-15.943 15.943-15.943 15.943 7.137 15.943 15.943c0 8.806-7.137 15.943-15.943 15.943v0zM16.641 7.668c-3.131 0-6.177 1.55-6.177 5.532v0.064c0 0 0.185 1.143 1.438 1.143 1.070 0 1.318-1.1 1.318-1.1l0.003-0.097c0-1.36 0.877-2.8 2.75-2.8 1.118 0 2.74 0.453 2.74 2.111 0 1.527-0.496 1.837-1.992 2.93-1.443 0.982-2.182 2.266-2.129 3.85v0.54c0 0 0.038 0.313 0.288 0.418 0.419 0.176 0.76 0.182 1.027 0.183 0.868 0.001 0.997-0.008 1.263-0.175 0.127-0.079 0.24-0.362 0.247-0.464 0.144-2.22 1.821-2.583 3.117-4.559 0.732-1.068 1.002-2.003 1.002-3.316-0.002-2.067-1.955-4.259-4.895-4.259v0zM16 21.511c-0.815 0-1.475 0.66-1.475 1.475s0.66 1.475 1.475 1.475c0.814 0 1.475-0.66 1.475-1.475s-0.66-1.475-1.475-1.475z"></path>
</symbol>
<symbol id="icon-nextPage" viewBox="0 0 32 32">
<title></title>
<path d="M11.165 0.37c0.311 0 0.621 0.119 0.859 0.354l14.544 14.544c0.473 0.473 0.473 1.243 0 1.716s-1.243 0.473-1.716 0l-14.547-14.544c-0.473-0.473-0.473-1.243 0-1.716 0.238-0.238 0.549-0.354 0.859-0.354z"></path>
<path d="M25.709 14.914c0.311 0 0.621 0.119 0.859 0.354 0.473 0.473 0.473 1.243 0 1.716l-14.544 14.544c-0.473 0.473-1.243 0.473-1.716 0s-0.473-1.243 0-1.716l14.544-14.544c0.235-0.235 0.546-0.354 0.857-0.354z"></path>
</symbol>
<symbol id="icon-book" viewBox="0 0 1792 1792">
<title></title>
<path xmlns="http://www.w3.org/2000/svg" d="M1265 1238q0-57-5.5-107t-21-100.5-39.5-86-64-58-91-22.5q-6 4-33.5 20.5t-42.5 24.5-40.5 20-49 17-46.5 5-46.5-5-49-17-40.5-20-42.5-24.5-33.5-20.5q-51 0-91 22.5t-64 58-39.5 86-21 100.5-5.5 107q0 73 42 121.5t103 48.5h576q61 0 103-48.5t42-121.5zm-173-594q0-108-76.5-184t-183.5-76-183.5 76-76.5 184q0 107 76.5 183t183.5 76 183.5-76 76.5-183zm636 540v192q0 14-9 23t-23 9h-96v224q0 66-47 113t-113 47h-1216q-66 0-113-47t-47-113v-1472q0-66 47-113t113-47h1216q66 0 113 47t47 113v224h96q14 0 23 9t9 23v192q0 14-9 23t-23 9h-96v128h96q14 0 23 9t9 23v192q0 14-9 23t-23 9h-96v128h96q14 0 23 9t9 23z"/>
</symbol>
</defs>
</svg>
