<?xml version="1.0" standalone="no"?>
<!DOCTYPE svg PUBLIC "-//W3C//DTD SVG 1.1//EN" "http://www.w3.org/Graphics/SVG/1.1/DTD/svg11.dtd" >
<svg xmlns="http://www.w3.org/2000/svg">
<metadata>Generated by IcoMoon</metadata>
<defs>
<font id="icomoon" horiz-adv-x="1024">
<font-face units-per-em="1024" ascent="960" descent="-64" />
<missing-glyph horiz-adv-x="1024" />
<glyph unicode="&#x20;" horiz-adv-x="512" d="" />
<glyph unicode="&#xe952;" glyph-name="stopwatch" d="M512.002 766.788v65.212h128v64c0 35.346-28.654 64-64.002 64h-191.998c-35.346 0-64-28.654-64-64v-64h128v-65.212c-214.798-16.338-384-195.802-384-414.788 0-229.75 186.25-416 416-416s416 186.25 416 416c0 218.984-169.202 398.448-384 414.788zM706.276 125.726c-60.442-60.44-140.798-93.726-226.274-93.726s-165.834 33.286-226.274 93.726c-60.44 60.44-93.726 140.8-93.726 226.274s33.286 165.834 93.726 226.274c58.040 58.038 134.448 91.018 216.114 93.548l-21.678-314.020c-1.86-26.29 12.464-37.802 31.836-37.802s33.698 11.512 31.836 37.802l-21.676 314.022c81.666-2.532 158.076-35.512 216.116-93.55 60.44-60.44 93.726-140.8 93.726-226.274s-33.286-165.834-93.726-226.274z" />
<glyph unicode="&#xe954;" glyph-name="uniE954" d="M838.656 554.496l-215.552 2.56-67.072 208.384c-5.12 15.872-19.968 27.136-37.376 27.136 0 0 0 0 0 0-16.896 0-31.744-10.752-37.376-26.624l-69.632-206.336-217.6 2.56c0 0-0.512 0-0.512 0-16.896 0-31.744-10.752-37.376-27.136s0-34.304 14.336-44.032l175.104-128-68.096-202.24c-5.632-16.384 0-33.792 13.824-44.032s32.256-10.752 46.080-0.512l176.64 123.904 177.152-129.024c6.656-4.608 14.336-7.68 22.528-7.68v0c0 0 0.512 0 0.512 0 8.192 0 16.384 2.56 23.040 7.68 13.824 9.728 19.456 27.648 14.336 44.032l-66.048 205.824 174.592 122.368c13.824 9.728 19.968 27.648 14.848 44.032-4.096 15.872-18.944 27.136-36.352 27.136zM626.176 380.928l66.56-207.36-177.152 129.536-177.152-124.416 68.608 203.776-175.616 128 217.6-2.56 69.632 207.36 67.072-208.896 215.552-2.56-175.104-122.88zM81.408 430.592c-5.12 3.584-12.288 8.704-16.896 13.312 4.608 4.608 12.288 9.728 17.408 13.824 19.968 14.848 42.496 31.744 40.96 56.832-1.024 23.040-20.48 40.96-38.912 57.856-7.68 7.168-20.992 19.456-23.040 24.576 0 0 0-0.512 0-2.048h-51.2c0-24.064 19.968-42.496 38.912-60.416 6.656-6.144 16.384-15.36 20.992-20.992-4.608-4.608-13.312-11.264-18.944-15.36-18.944-14.336-38.4-28.672-40.96-50.688-2.56-26.624 20.48-43.52 40.96-58.368 5.12-4.096 13.312-9.728 17.92-13.824-4.608-5.12-13.312-12.288-18.944-16.896-19.456-16.384-39.936-32.768-39.936-57.344h51.2c0-2.048-0.512-3.072-0.512-3.072 2.048 4.608 14.336 14.848 22.016 20.992 19.968 16.384 40.448 33.28 39.936 58.368 0 23.552-20.48 38.4-40.96 53.248zM964.608 358.4c-5.632 4.608-14.336 11.776-18.944 16.896 4.608 4.096 12.8 10.24 17.92 13.824 20.48 14.848 44.032 31.744 40.96 58.368-2.56 22.016-22.016 36.864-40.96 50.688-5.632 4.096-14.336 10.752-18.944 15.36 4.608 6.144 14.336 15.36 20.992 20.992 19.456 17.92 38.912 36.352 38.912 60.416h-51.2c0 1.024 0 2.048 0 2.048-2.048-5.12-14.848-17.408-23.040-24.576-18.432-17.408-37.888-34.816-38.912-57.856-1.024-25.6 21.504-41.984 40.96-56.832 5.12-3.584 12.288-9.216 17.408-13.824-4.608-4.096-11.776-9.728-16.896-13.312-19.968-14.848-40.96-29.696-41.472-53.76-0.512-24.576 19.968-41.472 39.936-58.368 7.68-6.144 19.968-16.384 22.016-20.992 0 0-0.512 1.024-0.512 3.072h51.2c0.512 24.576-19.456 41.472-39.424 57.856z" />
<glyph unicode="&#xe955;" glyph-name="uniE955" d="M750.080 95.744c0 0 0.512 0 0 0 9.216 0 17.92 2.56 25.088 8.192 14.848 10.752 20.992 29.696 15.36 47.104l-80.384 250.88 212.48 148.992c14.848 10.752 21.504 29.184 15.872 47.104-5.632 17.408-21.504 29.184-39.936 29.696l-262.144 3.072-81.408 253.44c-5.632 17.408-21.504 29.184-39.936 29.184 0 0 0 0-0.512 0-17.92 0-34.304-11.264-39.936-28.672l-84.48-250.88-264.704 3.072c-18.432 0.512-34.816-11.264-40.448-28.672s0.512-36.352 15.36-47.104l212.992-155.648-82.944-246.272c-5.632-17.408 0-36.352 14.848-47.104 14.336-10.752 34.304-11.264 49.664-1.024l215.040 151.040 215.552-157.184c7.168-6.144 15.872-9.216 24.576-9.216v0zM510.976 324.096l-222.208-156.16 86.016 255.488-220.672 160.768 273.408-3.072 87.552 260.096 83.968-261.632 270.336-3.072-220.16-154.112 83.456-260.096-221.696 161.792zM600.064 48.128c-26.112-1.536-52.736-2.56-79.872-2.56-241.664-2.56-438.272 40.96-438.784 97.792-0.512 28.16 47.104 53.76 123.904 73.216-4.096 7.68-6.144 15.872-6.144 24.576 0 0.512 0 1.024 0 1.536-97.792-25.088-159.744-60.416-159.232-99.328 1.024-71.68 212.48-127.488 473.088-124.416 30.72 0.512 60.928 1.536 90.112 3.584l-8.704-29.696 90.624 51.2-99.328 30.208 14.336-26.112zM813.568 250.88c0.512-3.584 1.024-7.168 1.024-10.752 0-4.608-0.512-8.704-1.536-13.312 88.064-17.92 143.36-44.032 143.36-74.24 0.512-38.912-90.624-73.216-224.768-92.672 8.192-6.656 13.824-14.336 14.336-23.040 142.336 24.064 238.080 67.584 237.568 115.712-0.512 40.448-66.56 75.776-169.984 98.304z" />
<glyph unicode="&#xe956;" glyph-name="uniE956" d="M140.8 640.512h84.48v56.832h-84.48v27.648l-84.992-56.32 84.992-56.32zM140.8 472.576l-84.992-56.32 84.992-56.32v28.16h84.48v56.832h-84.48zM140.8 236.544l-84.992-55.808 84.992-56.832v28.672l84.48-0.512v56.832h-84.48zM829.44 640.512h84.48v-28.16l84.992 56.32-84.992 56.32v-27.648h-84.48zM913.92 444.928h-84.48v-56.832h84.48v-28.16l84.992 56.32-84.992 56.32zM913.92 215.552h-84.48v-56.832h84.48v-28.16l84.992 56.32-84.992 56.32zM676.864 382.464l154.112 108.032c13.312 9.216 19.456 26.624 14.336 42.496s-19.456 26.624-35.84 26.624l-190.464 2.048-59.392 184.32c-5.12 15.36-19.456 26.112-35.84 26.112 0 0 0 0 0 0-16.384 0-30.72-10.24-35.84-25.6l-61.44-182.272-192.512 2.048c-16.384 0-31.232-10.24-36.352-26.112s0-32.768 13.824-42.496l155.136-113.152-60.416-178.688c-5.12-15.36 0-32.768 13.312-42.496s31.232-10.24 44.544-0.512l156.16 109.568 156.672-114.176c6.656-4.608 13.824-7.168 22.016-7.168v0c0 0 0.512 0 0.512 0 8.192 0 15.872 2.56 22.016 7.168 13.312 9.728 18.944 26.624 13.824 42.496l-58.368 181.76zM520.704 335.36l-153.088-107.52 59.392 176.128-151.552 110.592 187.904-2.048 60.416 179.2 57.856-180.736 185.856-2.048-151.552-105.984 57.856-179.2-153.088 111.616z" />
<glyph unicode="&#xe957;" glyph-name="uniE957" d="M529.92 637.44l-50.688-151.040-159.744 2.048 129.024-94.208-50.176-148.992 129.536 90.624 129.536-94.72-48.64 151.552 128.512 90.112-158.208 2.048-49.152 152.576zM589.312 413.184c-7.68-5.632-11.264-15.36-8.192-24.576l24.064-75.776-65.024 47.616c-3.584 2.56-8.192 4.096-12.8 4.096s-9.216-1.536-12.8-4.096l-65.024-45.568 25.088 73.728c3.072 9.216 0 18.944-7.68 24.576l-63.488 46.080 78.848-1.024c9.216 0 17.92 5.632 20.992 14.848l25.6 76.288 24.576-77.312c3.072-8.704 11.264-14.848 20.48-14.848l77.824-1.024-62.464-43.008zM997.888 571.904c-5.632 18.944-23.040 31.744-43.008 31.744l-289.792 3.584-90.112 280.064c-6.144 18.432-23.040 31.232-43.008 31.232 0 0 0 0-0.512 0-19.456 0-36.864-12.288-43.008-30.72l-93.184-277.504-292.864 3.584c-19.968 0.512-37.376-12.288-43.52-31.232s0.512-39.424 16.384-51.2l236.032-172.032-91.648-272.384c-6.144-18.432 0-38.912 15.872-50.688s37.376-12.288 53.248-1.024l238.080 166.912 238.592-174.080c7.68-5.632 16.896-8.704 26.112-8.704v0c0 0 0.512 0 0.512 0 9.728 0 18.944 3.072 26.624 8.704 15.872 11.264 22.528 31.744 16.384 50.688l-89.088 277.504 235.008 164.864c15.872 11.264 22.528 31.744 16.896 50.688zM681.472 377.856l93.184-289.28-247.808 180.736-247.296-173.568 95.744 284.16-245.248 179.2 304.128-3.584 97.28 289.28 93.696-291.328 301.056-3.584-244.736-172.032z" />
<glyph unicode="&#xe958;" glyph-name="uniE958" d="M216.064 573.952c0 4.608 1.024 9.216 2.56 13.312 5.632 14.848 20.48 24.576 36.864 23.040l172.032-12.288 61.44 162.816c5.632 15.36 20.48 24.576 36.864 23.552 15.872-1.024 29.184-12.288 33.28-27.648l45.568-171.52 176.128-12.288c15.872-1.024 29.184-12.288 33.28-27.136v-0.512c4.096-15.36-2.048-31.232-15.872-39.936l-147.456-94.72 44.544-169.472c4.096-15.872-2.048-31.744-15.872-40.448s-31.232-7.168-43.52 3.072l-133.632 112.128-146.432-93.696c-13.312-8.704-30.72-7.68-43.52 2.56-6.144 5.12-10.24 11.776-12.288 19.456v0c-2.048 7.68-1.536 15.36 1.024 22.528l62.464 165.376-135.68 113.664c-7.168 6.656-11.776 17.408-11.776 28.16zM521.216 701.44l-59.392-156.672-165.888 11.776 129.536-108.544-60.416-159.744 141.824 91.136 127.488-107.008-42.496 161.28 142.848 91.648-170.496 11.776-43.008 164.352zM185.344 423.424c-1.024 24.576 8.192 48.128 25.088 65.536l-27.648 26.112c-23.552-24.576-36.352-57.856-35.328-92.16 1.024-34.816 15.36-67.072 40.96-91.136l25.6 27.136c-17.92 16.896-28.16 39.936-28.672 64.512v0zM90.624 424.96c-1.024 35.84 11.776 69.632 36.352 95.744l-39.936 38.4c-34.304-35.84-52.736-83.968-51.2-134.656s22.528-97.792 59.392-132.608l37.376 39.424c-26.112 24.576-40.96 57.856-41.984 93.696v0zM809.472 312.32l28.16-25.088c22.528 25.6 33.792 58.88 31.232 93.184-2.56 34.816-18.432 66.56-44.032 89.6l-24.576-28.16c18.944-16.384 29.696-38.912 31.744-63.488 1.536-24.576-6.144-48.128-22.528-66.048v0zM891.392 280.064l41.472-36.864c33.28 37.376 49.664 85.504 46.080 136.192-3.584 50.176-26.624 96.768-64.512 130.56l-35.84-40.96c27.136-24.064 43.52-56.832 46.080-92.672 2.048-35.328-9.728-69.632-33.28-96.256v0z" />
<glyph unicode="&#xe959;" glyph-name="uniE959" d="M818.688 540.672l-215.040 2.56-66.56 207.872c-4.608 14.848-18.432 25.088-34.304 25.6h-0.512c0 0 0 0 0 0-15.872 0-29.696-10.24-34.816-25.088l-69.12-205.824-217.6 2.56c-15.872 0.512-30.208-9.728-35.328-25.088s0-31.744 13.312-40.96l175.104-128-68.096-202.24c-5.12-14.848 0-31.744 12.8-40.96 12.8-9.728 30.208-9.728 43.008-0.512l176.64 123.904 177.152-129.024c6.144-4.608 13.312-7.168 20.992-7.168 0 0 0.512 0 0.512 0 7.68 0 15.36 2.56 21.504 7.168 12.8 9.216 18.432 25.6 13.312 40.96l-66.048 205.824 174.080 122.368c13.312 9.216 18.944 25.6 13.824 40.96-5.12 14.336-18.944 25.088-34.816 25.088zM610.304 370.176l67.584-210.432-180.224 131.584-180.224-126.464 69.632 206.848-178.688 130.56 221.696-2.56 70.656 210.432 68.096-212.48 219.136-2.56-177.664-124.928zM476.672 804.864h44.032c1.536 0 3.072 1.536 3.072 3.072v98.304c0 1.536-1.536 3.072-3.072 3.072h-44.032c-1.536 0-3.072-1.536-3.072-3.072v-98.304c0-1.536 1.536-3.072 3.072-3.072zM212.48 699.904c1.024-1.024 3.072-1.024 4.608 0l31.232 31.232c1.024 1.024 1.024 3.072 0 4.608l-69.632 69.632c-1.024 1.024-3.072 1.024-4.608 0l-31.232-31.232c-1.024-1.024-1.024-3.072 0-4.608l69.632-69.632zM131.584 462.848h-98.304c-1.536 0-3.072-1.536-3.072-3.072v-44.032c0-1.536 1.536-3.072 3.072-3.072h98.304c1.536 0 3.072 1.536 3.072 3.072v44.032c0 1.536-1.536 3.072-3.072 3.072zM216.576 196.096c-1.024 1.024-3.072 1.024-4.608 0l-69.632-69.632c-1.024-1.024-1.024-3.072 0-4.608l31.232-31.232c1.024-1.024 3.072-1.024 4.608 0l69.632 69.632c1.024 1.024 1.024 3.072 0 4.608l-31.232 31.232zM780.8 196.096c-1.024 1.024-3.072 1.024-4.608 0l-31.232-31.232c-1.024-1.024-1.024-3.072 0-4.608l69.632-69.632c1.024-1.024 3.072-1.024 4.608 0l31.232 31.232c1.024 1.024 1.024 3.072 0 4.608l-69.632 69.632zM521.216 91.136h-44.032c-1.536 0-3.072-1.536-3.072-3.072v-98.304c0-1.536 1.536-3.072 3.072-3.072h44.032c1.536 0 3.072 1.536 3.072 3.072v98.304c0 2.048-1.536 3.072-3.072 3.072zM776.704 699.904c1.024-1.024 3.072-1.024 4.608 0l69.632 69.632c1.024 1.024 1.024 3.072 0 4.608l-31.232 31.232c-1.024 1.024-3.072 1.024-4.608 0l-69.632-69.632c-1.024-1.024-1.024-3.072 0-4.608l31.232-31.232zM970.24 462.848h-98.304c-1.536 0-3.072-1.536-3.072-3.072v-44.032c0-1.536 1.536-3.072 3.072-3.072h98.304c1.536 0 3.072 1.536 3.072 3.072v44.032c0 1.536-1.536 3.072-3.072 3.072z" />
<glyph unicode="&#xe95a;" glyph-name="uniE95A" d="M327.168 150.528c-4.608 0-9.216 1.024-13.312 2.56-14.848 5.632-24.576 20.48-23.040 36.864l12.288 172.032-162.816 61.44c-15.36 5.632-24.576 20.48-23.552 36.864 1.024 15.872 12.288 29.184 27.648 33.28l171.52 45.568 12.288 176.128c1.024 15.872 12.288 29.184 27.136 33.28h0.512c15.36 4.096 31.232-2.048 39.936-15.872l94.72-147.456 169.472 44.544c15.872 4.096 31.744-2.048 40.448-15.872s7.168-31.232-3.072-43.52l-112.128-133.632 93.696-146.432c8.704-13.312 7.68-30.72-2.56-43.52-5.12-6.144-11.776-10.24-19.456-12.288v0c-7.68-2.048-15.36-1.536-22.528 1.024l-165.376 62.464-113.664-135.68c-7.168-7.168-17.92-11.776-28.16-11.776zM199.168 455.68l156.672-59.392-11.776-165.888 108.544 129.536 159.744-60.416-91.136 141.824 107.008 127.488-161.28-42.496-91.648 142.848-11.776-170.496-164.352-43.008zM477.184 119.808c-24.576-1.024-48.128 8.192-65.536 25.088l-26.112-27.648c24.576-23.552 57.856-36.352 92.16-35.328 34.816 1.024 67.072 15.36 91.136 40.96l-27.136 25.6c-16.896-17.92-39.936-28.16-64.512-28.672v0zM475.648 25.088c-35.84-1.024-69.632 11.776-95.744 36.352l-38.4-39.936c35.84-34.304 83.968-52.736 134.656-51.2s97.792 22.528 132.608 59.392l-39.424 37.376c-24.576-26.112-57.856-40.96-93.696-41.984v0zM588.8 743.936l25.088 28.16c-25.6 22.528-58.88 33.792-93.184 31.232-34.816-2.56-66.56-18.432-89.6-44.032l28.16-24.576c16.384 18.944 38.912 29.696 63.488 31.744 24.064 1.536 47.616-6.144 66.048-22.528v0zM620.544 825.856l36.864 41.472c-37.376 33.28-85.504 49.664-136.192 46.080-50.176-3.584-96.768-26.624-130.56-64.512l40.96-35.84c24.064 27.136 56.832 43.52 92.672 46.080 35.328 2.048 69.632-9.728 96.256-33.28v0z" />
<glyph unicode="&#xe95b;" glyph-name="uniE95B" d="M704 227.328c0 0 0 0 0 0-8.704 0-16.896 2.56-23.552 7.68l-185.856 135.68-185.344-130.048c-14.336-9.728-33.28-9.728-47.104 1.024-13.824 10.24-19.456 28.16-13.824 44.544l71.168 211.968-183.808 134.144c-14.336 10.24-19.968 28.16-14.336 45.056 5.632 16.384 20.992 27.648 38.4 27.136l228.352-2.56 72.704 216.064c5.632 16.384 20.48 27.136 37.888 27.136h0.512c16.896-0.512 31.744-11.264 37.376-27.648l70.144-218.624 225.792-2.56c17.408 0 32.768-11.264 37.888-28.16s-1.024-34.816-15.36-44.544l-182.784-128.512 69.632-216.064c5.12-16.384-0.512-34.304-14.848-44.544-6.144-4.608-14.336-7.168-23.040-7.168zM495.104 433.664l187.392-136.704-70.656 219.136 185.344 130.048-227.84 2.56-71.168 220.672-73.728-219.136-230.4 2.56 185.856-135.68-72.704-215.552 187.904 132.096zM776.192 185.856c0 6.656-3.072 12.8-8.704 16.384s-12.288 4.608-18.432 2.048l-88.064-35.84c-10.24-4.096-15.36-15.872-10.752-26.112 4.096-10.24 15.872-15.36 26.112-10.752l24.576 10.24c-38.912-76.288-116.736-124.928-204.8-124.928s-165.888 49.152-204.8 125.44l25.6-10.24c10.24-4.096 22.016 0.512 26.112 10.752s-1.024 22.016-10.752 26.112l-88.064 35.84c-6.144 2.56-13.312 2.048-18.432-2.048-5.632-3.584-8.704-9.728-8.704-16.384v-94.72c0-11.264 8.704-19.968 19.968-19.968v0c11.264 0 19.968 9.216 19.968 19.968v31.744c45.568-89.088 136.704-146.432 239.616-146.432 103.424 0 194.56 57.344 240.128 146.944v-32.768c0-10.752 9.216-19.968 19.968-19.968v0c11.264 0 19.968 9.216 19.968 19.968l-0.512 94.72z" />
<glyph unicode="&#xe95c;" glyph-name="uniE95C" d="M748.544 419.84l179.712 218.624c11.776 14.848 13.312 35.328 3.072 51.2s-29.696 23.552-47.616 18.432l-276.48-73.216-159.744 242.176c-10.24 15.36-29.184 23.040-47.616 17.92s-31.232-20.992-32.256-39.424l-15.36-288.256-279.040-74.24c-18.432-5.12-31.232-20.992-32.256-39.936s10.24-36.352 28.16-43.008l269.824-101.376-14.848-283.136c-1.024-18.944 10.24-36.352 27.648-43.008 5.12-2.048 10.752-3.072 15.872-3.072 12.8 0 25.088 5.632 33.792 15.872l181.76 221.696 272.384-102.4c8.704-3.072 17.92-3.584 26.624-1.536 9.216 2.56 16.896 7.68 23.040 14.848 11.776 14.848 12.8 35.328 2.56 51.2l-159.232 240.64zM565.76 278.016l-189.952-231.424 15.872 296.96-282.112 105.984 291.84 77.312 15.872 302.080 166.912-253.44 288.768 76.8-188.416-229.376 165.888-251.392-284.672 106.496zM188.416 673.28l70.656 81.408-54.784 47.104-70.656-81.408-27.136 23.552-16.896-128.512 125.44 34.816zM231.936 206.336l-70.656 80.896-54.784-47.104 70.656-81.408-26.624-23.040 125.44-34.304-16.896 128.512zM654.848 787.968l102.912-31.744 21.504 69.12-102.912 31.744 10.24 33.28-124.416-36.352 82.432-100.352zM985.6 509.44l-108.032-71.68 32.768-13.824-41.984-99.328 66.56-27.648 41.472 98.816 33.28-13.824zM644.096 67.072l-104.448-24.576 16.384-70.144 104.448 24.064 8.192-34.816 89.088 94.208-121.344 45.568z" />
<glyph unicode="&#xe95d;" glyph-name="uniE95D" d="M606.208 396.8l110.080 77.312-135.68 1.536c-4.096 0-7.68 2.56-8.704 6.656l-42.496 131.584-44.032-130.56c-1.536-3.584-5.12-6.144-8.704-6.144l-137.216 1.536 111.104-81.408c3.072-2.56 4.608-6.656 3.072-10.24l-43.008-128 111.616 78.336c2.048 1.024 4.096 1.536 5.632 1.536 2.048 0 3.584-0.512 5.12-1.536l111.616-81.408-41.984 130.56c-1.024 4.096 0 8.192 3.584 10.24zM168.96 774.144l68.096-78.336 52.224 45.568-68.096 78.336 25.6 22.016-120.32 33.28 16.384-123.904zM998.912 86.016l-16.384 123.904-26.112-23.040-68.096 78.336-52.224-45.568 68.096-78.336-25.6-22.016zM829.44 695.296l68.096 77.824 26.112-22.528 16.384 123.904-120.32-33.28 25.6-22.016-68.096-78.336zM166.4 289.28l-68.096-78.336-26.112 23.040-16.384-123.904 120.32 33.28-25.6 22.016 68.096 78.336zM738.816 351.232l220.16 154.624c16.896 11.776 24.064 32.768 17.92 52.224s-23.552 32.768-44.032 32.768l-271.872 3.072-84.48 262.656c-6.144 18.944-23.552 32.256-44.032 32.256-0.512 0-0.512 0-0.512 0-20.48 0-38.4-12.8-44.544-31.744l-87.552-260.096-274.432 3.072c-20.48 0.512-38.4-12.288-45.056-31.744-6.144-19.456 0.512-40.96 16.896-52.736l221.184-161.28-86.016-255.488c-6.144-18.944 0-39.936 16.384-52.224 15.872-12.288 37.888-12.8 54.784-1.024l222.72 156.672 223.744-162.816c8.192-6.144 17.408-9.216 27.136-9.216h0.512c10.24 0 19.456 3.072 27.648 8.704 16.384 11.776 23.040 32.768 16.896 52.224l-83.456 260.096zM527.36 274.432l-226.816-159.744 87.552 260.608-224.768 164.352 279.040-3.072 89.088 265.216 86.016-267.264 275.968-3.072-224.256-157.696 85.504-265.216-227.328 165.888z" />
<glyph unicode="&#xe95e;" glyph-name="uniE95E" d="M573.952 875.008l141.824-172.544 212.48 79.872c7.68 2.56 15.872 3.072 24.064 1.024v0c8.704-2.56 15.872-7.168 20.992-13.824 10.752-13.312 11.776-32.256 2.048-46.592l-123.392-186.88 139.776-170.496c10.752-13.312 11.776-31.744 2.56-46.592-9.216-14.336-26.624-21.504-43.52-16.896l-215.552 57.344-124.416-188.928c-9.216-13.824-26.624-20.48-43.008-16.384h-0.512c-16.384 4.608-28.16 18.944-29.184 36.352l-11.776 224.768-217.6 57.856c-16.896 4.608-28.672 18.944-29.696 36.352s9.216 33.28 25.6 39.424l209.92 78.848-11.776 220.672c-1.024 17.408 9.216 33.28 25.088 39.424 4.608 1.536 9.216 2.56 14.336 2.56 11.264 0 22.528-5.12 31.744-15.36zM574.976 456.704l12.288-227.328 125.44 190.464 216.576-57.856-141.312 172.032 124.416 188.928-214.016-80.384-142.848 174.080 11.776-223.232-211.968-79.36 219.648-57.344zM230.912 375.296c39.424-92.16 84.992-145.408 106.496-142.848 33.28 3.584 57.856 126.976 60.416 141.312l50.176-9.728c-22.528-119.296-55.808-177.664-104.96-182.784-35.328-4.096-70.656 20.992-107.008 75.776-9.216-82.432-46.592-139.264-81.92-175.616-53.248-54.784-112.128-74.752-114.688-75.776l-16.384 48.64c8.192 2.56 198.144 70.144 158.208 305.664-2.048 13.312 5.632 26.112 18.432 29.696l22.016 6.144 9.216-20.48z" />
<glyph unicode="&#xe95f;" glyph-name="uniE95F" d="M762.88 577.024c-6.656 9.728-18.432 14.336-29.696 11.264l-137.728-38.912-77.312 117.248c-6.656 9.728-18.432 14.336-29.696 11.264s-19.456-12.8-19.968-24.576l-7.68-142.336-139.264-39.424c-5.632-1.536-10.24-4.608-13.824-9.216v0c-3.584-4.608-5.632-10.24-6.144-15.872-0.512-11.776 6.656-22.528 17.408-26.624l133.632-49.152-7.168-140.288c-0.512-11.776 6.144-22.528 17.408-26.624 3.072-1.024 6.144-1.536 9.728-1.536 8.192 0 15.872 3.584 20.992 10.24l88.576 110.592 135.168-49.664c10.752-4.096 23.040-0.512 30.72 8.704 7.168 9.216 7.68 22.016 1.536 31.744l-78.848 119.808 89.6 111.616c8.192 9.216 8.704 22.016 2.56 31.744zM627.2 435.712l78.336-119.296-134.144 49.664-88.064-109.568 7.168 139.264-133.12 49.152 137.728 38.912 7.168 140.8 76.8-117.248 136.192 38.4-88.064-110.080zM587.776 855.552c-122.368 10.24-236.544-34.304-318.464-113.664l24.064-26.624c74.752 72.704 179.2 113.664 291.328 104.448 205.312-17.408 357.376-197.632 339.968-402.944s-197.632-357.376-402.944-339.968c-201.728 16.896-351.744 192-340.48 392.704l97.28-97.28 25.6 25.6-142.336 142.336-142.848-142.336 25.6-25.6 100.864 100.864c-13.312-220.672 151.552-413.184 373.248-432.128 225.28-18.944 422.912 147.968 442.368 373.248 18.944 224.256-147.968 422.4-373.248 441.344z" />
<glyph unicode="&#xe960;" glyph-name="uniE960" d="M750.080 95.744c0 0 0.512 0 0 0 9.216 0 17.92 2.56 25.088 8.192 14.848 10.752 20.992 29.696 15.36 47.104l-80.384 250.88 212.48 148.992c14.848 10.752 21.504 29.184 15.872 47.104-5.632 17.408-21.504 29.184-39.936 29.696l-262.144 3.072-81.408 253.44c-5.632 17.408-21.504 29.184-39.936 29.184 0 0 0 0-0.512 0-17.92 0-34.304-11.264-39.936-28.672l-84.48-250.88-264.704 3.072c-18.432 0.512-34.816-11.264-40.448-28.672s0.512-36.352 15.36-47.104l212.992-155.648-82.944-246.272c-5.632-17.408 0-36.352 14.848-47.104 14.336-10.752 34.304-11.264 49.664-1.024l215.040 151.040 215.552-157.184c7.168-6.144 15.872-9.216 24.576-9.216v0zM510.976 324.096l-222.208-156.16 86.016 255.488-220.672 160.768 273.408-3.072 87.552 260.096 83.968-261.632 270.336-3.072-220.16-154.112 83.456-260.096-221.696 161.792zM600.064 48.128c-26.112-1.536-52.736-2.56-79.872-2.56-241.664-2.56-438.272 40.96-438.784 97.792-0.512 28.16 47.104 53.76 123.904 73.216-4.096 7.68-6.144 15.872-6.144 24.576 0 0.512 0 1.024 0 1.536-97.792-25.088-159.744-60.416-159.232-99.328 1.024-71.68 212.48-127.488 473.088-124.416 30.72 0.512 60.928 1.536 90.112 3.584l-8.704-29.696 90.624 51.2-99.328 30.208 14.336-26.112zM813.568 250.88c0.512-3.584 1.024-7.168 1.024-10.752 0-4.608-0.512-8.704-1.536-13.312 88.064-17.92 143.36-44.032 143.36-74.24 0.512-38.912-90.624-73.216-224.768-92.672 8.192-6.656 13.824-14.336 14.336-23.040 142.336 24.064 238.080 67.584 237.568 115.712-0.512 40.448-66.56 75.776-169.984 98.304z" />
<glyph unicode="&#xe961;" glyph-name="uniE961" d="M44.032 519.168l179.712-125.952-68.096-212.48c-5.632-16.896 0.512-34.304 14.336-44.544 6.656-5.12 14.848-7.68 23.040-7.68h0.512c8.192 0 16.384 2.56 23.040 7.68l182.784 133.12 182.272-128c13.824-9.728 32.768-9.216 46.592 1.024s19.456 28.16 13.824 44.544l-70.144 208.384 180.736 131.584c14.336 10.24 19.968 28.16 14.336 44.544s-20.992 27.136-38.4 27.136l-224.256-2.56-71.68 212.48c-5.632 16.384-20.992 27.136-37.888 27.136v0c-16.896-0.512-32.256-11.264-37.376-27.648l-69.12-214.528-221.696-2.56c-17.408-0.512-32.256-11.776-37.376-28.16s1.024-34.304 14.848-43.52zM101.888 540.16l223.232 2.56 69.632 216.576 72.192-214.528 225.792 2.56-181.76-132.608 71.168-210.944-183.296 128.512-183.808-134.144 69.12 214.528-182.272 127.488zM658.944 735.744h168.96v-52.736h-168.96v52.736zM827.392 507.904h168.96v-52.736h-168.96v52.736zM658.944 310.272h168.96v-52.736h-168.96v52.736z" />
<glyph unicode="&#xe962;" glyph-name="uniE962" d="M128.512 626.688l103.936 67.072-102.4 69.12-0.512-33.28-102.4 1.024-0.512-68.608 102.4-1.024zM242.176 373.76l-101.888 69.12-0.512-33.28-102.4 1.024-0.512-68.608 102.4-1.024-0.512-34.304zM138.752 150.528l-102.4 1.024-0.512-68.608 102.4-1.024-0.512-34.304 103.936 67.072-102.4 69.12zM765.952 342.016l218.112 153.088c15.872 11.264 23.040 31.744 17.408 50.176-5.632 18.944-23.040 31.744-42.496 31.744l-269.312 3.072-83.456 260.096c-6.144 18.432-23.040 31.232-42.496 31.232 0 0 0 0-0.512 0-19.456 0-36.864-12.288-43.008-30.72l-86.528-257.536-272.384 3.072c-19.456 0-36.864-12.288-43.008-30.72-6.144-18.944 0.512-38.912 16.384-50.688l219.136-159.744-84.992-252.928c-6.144-18.432 0-38.912 15.872-50.688s36.864-12.288 53.248-1.024l220.672 155.136 221.184-161.792c7.68-5.632 16.896-8.704 26.112-8.704h0.512c9.728 0 18.944 3.072 26.624 8.704 15.872 11.264 22.528 31.744 16.384 50.176l-83.456 258.048zM558.080 264.704l-226.304-158.72 87.552 260.096-224.256 163.84 278.016-3.072 89.088 264.192 85.504-266.24 274.944-3.072-223.744-157.184 84.992-264.704-225.792 164.864z" />
<glyph unicode="&#xe963;" glyph-name="uniE963" d="M150.528 739.84l68.608-78.848 52.736 46.080-68.608 78.848 25.6 22.016-121.344 33.792 16.384-124.928zM983.552 82.944l-16.384 124.928-26.112-23.040-68.608 78.848-52.736-46.080 68.608-78.848-26.112-22.016zM815.616 660.992l68.096 78.848 26.624-23.040 16.384 124.928-121.344-33.792 25.6-22.016-68.608-78.848zM151.552 263.68l-68.608-78.848-26.112 23.040-16.384-124.928 121.344 33.792-26.112 22.016 68.608 78.848zM722.432 338.432l220.672 155.136c17.408 12.288 24.576 33.792 18.432 54.272-6.144 19.968-24.576 33.792-45.568 34.304l-272.896 3.072-84.48 263.68c-6.144 19.968-24.576 33.28-45.056 33.792h-1.024c-20.992 0.512-39.424-13.312-46.080-33.28l-88.064-261.12-275.456 3.072c-20.992 0.512-39.936-13.312-46.592-33.28s0.512-41.984 17.408-54.784l221.696-161.792-86.016-256c-6.656-19.968 0-41.984 16.896-54.272 16.896-12.8 39.936-12.8 56.832-1.024l223.744 157.184 224.256-163.84c8.192-6.144 17.92-9.216 28.16-9.216v0c0 0 0.512 0 0.512 0 10.24 0 19.968 3.072 28.672 9.216 16.896 12.288 24.064 33.792 17.92 54.272l-83.968 260.608zM507.904 263.68l-225.792-158.72 87.552 259.584-223.744 163.328 277.504-3.072 89.088 264.192 85.504-266.24 274.944-3.072-223.232-156.672 84.992-264.192-226.816 164.864z" />
<glyph unicode="&#xe964;" glyph-name="uniE964" d="M862.72 365.568l-151.040 184.32 133.632 202.752c9.728 14.848 8.704 34.304-2.048 47.616-5.632 7.168-12.8 11.776-21.504 14.336v0c-8.192 2.048-16.896 1.536-25.088-1.024l-229.888-86.016-153.6 186.88c-11.264 13.824-29.696 18.432-46.080 12.288s-27.136-22.528-26.112-40.448l12.8-238.592-227.328-85.504c-16.896-6.144-27.136-22.528-26.624-40.448 1.024-17.92 13.312-32.768 30.208-37.376l235.52-62.464 12.8-243.2c1.024-17.408 12.8-32.768 30.208-37.376h1.024c3.072-1.024 6.656-1.024 9.728-1.024 13.312 0 26.624 6.656 34.304 18.432l134.656 204.288 232.96-61.952c17.408-4.608 35.328 2.56 45.056 17.408 9.216 13.824 7.68 33.28-3.584 47.104zM565.248 420.864l-137.728-208.896-13.312 249.344-240.128 64 232.448 87.040-12.8 244.736 156.672-190.976 234.496 88.064-136.704-207.36 155.136-188.928-238.080 62.976zM667.136 142.336h56.832v-182.272h-56.832v182.272zM554.496 203.264h56.832v-182.272h-56.832v182.272z" />
<glyph unicode="&#xe965;" glyph-name="uniE965" d="M590.848 360.96l110.080 77.312-135.68 1.536c-4.096 0-7.68 2.56-8.704 6.656l-42.496 131.584-44.032-130.56c-1.536-3.584-5.12-6.144-8.704-6.144l-137.216 1.536 111.104-81.408c3.072-2.56 4.608-6.656 3.072-10.24l-43.008-128 111.616 78.336c2.048 1.024 4.096 1.536 5.632 1.536 2.048 0 3.584-0.512 5.12-1.536l111.616-81.408-41.984 130.56c-1.024 4.096 0 8.192 3.584 10.24zM153.6 693.248l120.32-33.28-16.384 123.904-26.112-23.040-68.096 78.336-52.224-45.568 68.096-78.336zM915.456 174.080l25.6 22.016-120.32 33.28 16.384-123.904 26.112 23.040 68.096-78.336 52.224 45.568zM856.576 714.752l68.096 78.336-52.224 45.568-68.096-77.824-26.112 22.528-16.384-123.904 120.32 33.28zM108.544 198.144l-68.096-78.336 52.224-45.568 68.096 78.336 26.112-23.040 16.384 123.904-120.32-33.28zM723.456 315.392l220.16 154.624c16.896 11.776 24.064 32.768 17.92 52.224s-23.552 32.768-44.032 32.768l-271.872 3.072-84.48 262.656c-6.144 18.944-23.552 32.256-44.032 32.256-0.512 0-0.512 0-0.512 0-20.48 0-38.4-12.8-44.544-31.744l-87.552-260.096-274.432 3.072c-20.48 0.512-38.4-12.288-45.056-31.744-6.144-19.456 0.512-40.96 16.896-52.736l221.184-161.28-86.016-255.488c-6.144-18.944 0-39.936 16.384-52.224 15.872-12.288 37.888-12.8 54.784-1.024l222.72 156.672 223.744-162.816c8.192-6.144 17.408-9.216 27.136-9.216h0.512c10.24 0 19.456 3.072 27.648 8.704 16.384 11.776 23.040 32.768 16.896 52.224l-83.456 260.096zM512 238.592l-226.816-159.744 87.552 260.608-224.768 164.352 279.040-3.072 89.088 265.216 86.016-267.264 275.968-3.072-224.256-157.696 85.504-265.216-227.328 165.888z" />
<glyph unicode="&#xe966;" glyph-name="uniE966" d="M533.504 5.12c-5.12 0-9.728 1.024-14.336 2.56-15.872 6.144-26.112 22.016-25.088 39.424l11.776 220.672-209.92 78.848c-16.384 6.144-26.624 22.016-25.6 39.424s12.8 31.744 29.696 36.352l217.6 57.856 11.776 224.768c1.024 17.408 12.8 31.744 29.184 36.352h0.512c16.384 4.096 33.792-2.56 43.008-16.384l124.416-188.928 215.552 57.344c16.896 4.608 34.304-2.56 43.52-16.896 9.216-14.848 8.192-33.28-2.56-46.592l-139.776-170.496 123.392-186.88c9.728-14.336 8.704-33.28-2.048-46.592-5.12-6.656-12.288-11.264-20.992-13.824v0c-8.192-2.048-16.384-1.536-24.064 1.024l-212.48 79.872-141.824-172.544c-9.216-10.24-20.48-15.36-31.744-15.36zM346.624 381.44l211.968-79.36-11.776-223.232 142.848 174.080 214.016-80.384-124.416 188.928 141.312 172.032-216.576-57.856-125.44 190.464-12.288-227.328-219.648-57.344zM212.992 499.712l-22.016 6.144c-12.8 3.584-20.48 16.384-18.432 29.696 39.936 235.52-150.016 303.104-158.208 305.664l16.384 48.64c2.56-1.024 61.44-20.992 114.688-75.776 35.328-36.352 72.704-93.184 81.92-175.616 36.352 54.784 71.68 79.872 107.008 75.776 49.152-5.12 82.432-63.488 104.96-182.784l-50.176-9.728c-2.56 14.336-27.136 137.728-60.416 141.312-21.504 2.56-67.072-50.688-106.496-142.848l-9.216-20.48z" />
<glyph unicode="&#xe967;" glyph-name="uniE967" d="M796.672 607.744c-8.704 13.824-25.088 19.968-40.96 15.872l-175.104-46.592-101.376 153.6c-8.704 13.312-25.088 19.456-40.96 15.36h-0.512c-15.36-4.608-26.112-17.92-27.136-33.792l-9.728-182.784-176.64-47.104c-15.872-4.096-26.624-17.92-27.648-34.304s8.704-31.232 24.064-36.864l170.496-64-9.728-179.2c-1.024-16.384 8.704-31.232 23.552-36.864 4.608-1.536 9.216-2.56 13.824-2.56 10.752 0 21.504 4.608 28.672 13.824l115.2 140.288 172.544-64.512c7.168-2.56 15.36-3.072 22.528-1.024v0c7.68 2.048 14.848 6.656 19.456 12.8 10.24 12.8 10.752 30.208 2.048 44.032l-99.84 152.064 113.664 138.24c11.264 12.288 12.288 29.696 3.584 43.52zM616.96 429.056l97.28-147.968-166.912 62.464-111.616-136.192 9.216 174.592-165.376 61.952 171.008 45.568 9.216 177.664 98.304-148.992 168.96 45.056-110.080-134.144zM780.8 176.64c-16.896-16.896-35.84-32.768-56.32-46.080-20.48-13.824-41.984-25.6-64.512-34.816-23.040-9.728-46.592-16.896-71.168-22.016-49.664-10.24-102.912-10.24-152.576 0-24.064 5.12-48.128 12.288-71.168 22.016-22.528 9.728-44.032 20.992-64.512 34.816-19.968 13.312-38.912 29.184-56.32 46.080-16.896 16.896-32.768 35.84-46.080 56.32-13.824 20.48-25.6 41.984-34.816 64.512-8.704 19.968-15.36 40.96-19.968 61.952l70.144 11.776-103.424 73.728-69.632-102.4 65.536 10.752c5.632-24.064 12.8-47.616 22.528-70.656 10.24-24.576 23.552-48.64 38.4-70.656s32.256-43.008 50.688-61.44c18.944-18.944 39.424-35.84 61.44-50.688s46.080-28.16 70.656-38.4c25.088-10.752 51.712-18.944 78.336-24.064 27.648-5.632 55.808-8.704 83.968-8.704s56.32 3.072 83.968 8.704c26.624 5.632 53.248 13.824 78.336 24.064 24.576 10.24 48.64 23.552 70.656 38.4s43.008 32.256 61.44 50.688c18.944 18.944 35.84 39.424 50.688 61.44l-31.232 20.992c-12.288-20.48-27.648-39.424-45.056-56.32zM920.576 529.92c-5.632 26.112-13.312 51.712-24.064 76.288-10.24 24.576-23.552 48.64-38.4 70.656s-32.256 43.008-50.688 61.44c-18.944 18.944-39.424 35.84-61.44 50.688s-46.080 28.16-70.656 38.4c-25.088 10.752-51.712 18.944-78.336 24.064-54.784 11.264-113.152 11.264-167.936 0-26.624-5.632-53.248-13.824-78.336-24.064-24.576-10.24-48.64-23.552-70.656-38.4s-43.008-32.256-61.44-50.688c-18.944-18.944-35.84-39.424-50.688-61.44l31.232-20.992c13.312 19.968 29.184 38.912 46.080 56.32 16.896 16.896 35.84 32.768 56.32 46.080 20.48 13.824 41.984 25.6 64.512 34.816 23.040 9.728 46.592 16.896 71.168 22.016 49.664 10.24 102.912 10.24 152.576 0 24.064-5.12 48.128-12.288 71.168-22.016 22.528-9.728 44.032-20.992 64.512-34.816 19.968-13.312 38.912-29.184 56.32-46.080 16.896-16.896 32.768-35.84 46.080-56.32 13.824-20.48 25.6-41.984 34.816-64.512 9.216-22.016 16.384-44.544 21.504-67.584l-71.68-11.776 103.424-73.728 69.632 102.4-65.024-10.752z" />
<glyph unicode="&#xe968;" glyph-name="uniE968" d="M750.080 95.744c0 0 0.512 0 0 0 9.216 0 17.92 2.56 25.088 8.192 14.848 10.752 20.992 29.696 15.36 47.104l-80.384 250.88 212.48 148.992c14.848 10.752 21.504 29.184 15.872 47.104-5.632 17.408-21.504 29.184-39.936 29.696l-262.144 3.072-81.408 253.44c-5.632 17.408-21.504 29.184-39.936 29.184 0 0 0 0-0.512 0-17.92 0-34.304-11.264-39.936-28.672l-84.48-250.88-264.704 3.072c-18.432 0.512-34.816-11.264-40.448-28.672s0.512-36.352 15.36-47.104l212.992-155.648-82.944-246.272c-5.632-17.408 0-36.352 14.848-47.104 14.336-10.752 34.304-11.264 49.664-1.024l215.040 151.040 215.552-157.184c7.168-6.144 15.872-9.216 24.576-9.216v0zM510.976 324.096l-222.208-156.16 86.016 255.488-220.672 160.768 273.408-3.072 87.552 260.096 83.968-261.632 270.336-3.072-220.16-154.112 83.456-260.096-221.696 161.792zM600.064 48.128c-26.112-1.536-52.736-2.56-79.872-2.56-241.664-2.56-438.272 40.96-438.784 97.792-0.512 28.16 47.104 53.76 123.904 73.216-4.096 7.68-6.144 15.872-6.144 24.576 0 0.512 0 1.024 0 1.536-97.792-25.088-159.744-60.416-159.232-99.328 1.024-71.68 212.48-127.488 473.088-124.416 30.72 0.512 60.928 1.536 90.112 3.584l-8.704-29.696 90.624 51.2-99.328 30.208 14.336-26.112zM813.568 250.88c0.512-3.584 1.024-7.168 1.024-10.752 0-4.608-0.512-8.704-1.536-13.312 88.064-17.92 143.36-44.032 143.36-74.24 0.512-38.912-90.624-73.216-224.768-92.672 8.192-6.656 13.824-14.336 14.336-23.040 142.336 24.064 238.080 67.584 237.568 115.712-0.512 40.448-66.56 75.776-169.984 98.304z" />
<glyph unicode="&#xe969;" glyph-name="uniE969" d="M916.992 744.96c-8.704 15.36-26.112 23.040-43.008 19.456l-222.208-46.592-116.224 199.168c-8.704 14.848-26.112 22.528-43.008 18.944s-29.696-17.408-31.232-34.816l-24.576-227.84-224.768-46.592c-16.896-3.584-29.696-17.408-31.744-34.816s7.68-33.792 23.552-40.96l209.408-91.648-24.064-223.744c-2.048-17.408 7.68-33.792 23.040-40.96 5.12-2.56 10.752-3.584 16.384-3.584 10.752 0 21.504 4.608 29.696 12.8l153.6 167.936 211.968-92.672c7.68-3.584 15.872-4.096 24.064-2.56 8.704 1.536 15.872 6.144 21.504 12.8 11.776 12.8 13.312 31.744 4.608 46.592l-115.2 197.12 152.576 165.376c11.776 12.8 14.336 31.744 5.632 46.592zM696.832 539.648l116.736-200.192-214.016 93.696-155.648-169.984 24.576 227.328-211.968 92.672 226.816 47.104 25.088 231.424 117.76-201.728 224.256 46.592-153.6-166.912zM292.352 285.184c11.264-61.952-79.872-134.144-115.712-156.672l27.648-43.008c6.656 4.096 158.72 100.864 138.752 209.408l-50.688-9.728zM474.624 137.216c-59.904-76.288-90.624-156.672-91.648-160.256l48.128-17.92c1.024 3.072 113.152 296.96 317.952 257.024l9.728 50.176c-103.424 19.968-201.728-24.576-284.16-129.024zM257.024 454.144l-50.688 8.192c-29.696-179.712-112.128-178.176-115.2-178.176h0.512l-4.608-51.2c0.512 0 2.048 0 4.096 0 23.040 0.512 131.072 11.776 165.888 221.184z" />
<glyph unicode="&#xe96a;" glyph-name="uniE96A" d="M1011.712 528.896c-5.12 16.384-19.968 27.648-37.376 28.16l-221.696 2.56-69.12 214.528c-5.12 16.384-20.48 27.136-37.376 27.648 0 0 0 0 0 0-16.896 0-32.256-10.752-37.888-27.136l-71.68-212.48-224.256 2.56c-17.408 0-32.768-10.752-38.4-27.136s0-34.304 14.336-44.544l180.736-131.584-70.144-208.384c-5.632-16.384 0-34.304 13.824-44.544s32.768-10.752 46.592-1.024l182.272 128 182.784-133.12c6.656-5.12 14.848-7.68 23.040-7.68v0c0 0 0.512 0 0.512 0 8.192 0 16.384 2.56 23.040 7.68 13.824 10.24 19.968 27.648 14.336 44.544l-68.096 212.48 179.712 125.952c13.824 9.216 19.968 27.136 14.848 43.52zM756.736 378.88l69.12-214.528-183.808 134.144-183.296-128.512 71.168 210.944-181.76 132.608 225.792-2.56 72.192 214.528 69.632-216.576 223.232-2.56-182.272-127.488zM212.992 701.952h168.96v-52.736h-168.96v52.736zM44.544 474.112h168.96v-52.736h-168.96v52.736zM212.992 276.48h168.96v-52.736h-168.96v52.736z" />
<glyph unicode="&#xe96b;" glyph-name="uniE96B" d="M869.888 600.576l103.936 67.072-102.4 69.12-0.512-33.28-102.4 1.024-0.512-68.608 102.4-1.024zM983.552 347.648l-101.888 69.12-0.512-33.28-102.4 1.024-0.512-68.608 102.4-1.024-0.512-34.304zM880.128 124.416l-102.4 1.024-0.512-68.608 102.4-1.024-0.512-34.304 103.936 67.072-102.4 69.12zM662.528 341.504l218.112 153.088c15.872 11.264 23.040 31.744 17.408 50.176-5.632 18.944-23.040 31.744-42.496 31.744l-269.312 3.072-83.456 260.096c-6.144 18.432-23.040 31.232-42.496 31.232 0 0 0 0-0.512 0-19.456 0-36.864-12.288-43.008-30.72l-86.528-257.536-271.872 3.072c0 0-0.512 0-0.512 0-19.456 0-36.864-12.288-43.008-30.72-6.144-18.944 0.512-38.912 16.384-50.688l219.136-159.744-84.992-252.928c-6.144-18.432 0-38.912 15.872-50.688s36.864-12.288 53.248-1.024l220.672 155.136 221.184-161.792c7.68-5.632 16.896-8.704 26.112-8.704 0 0 0.512 0 0.512 0 9.728 0 18.944 3.072 26.624 8.704 15.872 11.264 22.528 31.744 16.384 50.176l-83.456 258.048zM454.656 264.192l-226.304-158.72 87.552 260.096-224.256 163.84 278.016-3.072 89.088 264.192 85.504-266.24 274.944-3.072-223.744-157.184 84.992-264.704-225.792 164.864z" />
<glyph unicode="&#xe96c;" glyph-name="uniE96C" d="M228.864 762.368l-68.608 78.848-52.736-46.080 68.608-78.848-25.6-22.016 121.344-33.792-16.384 124.928zM819.712 263.168l16.384-124.928 26.112 23.040 68.608-78.848 52.736 46.080-68.608 78.848 26.112 22.016zM873.472 841.216l-68.096-78.848-26.624 23.040-16.384-124.928 121.344 33.792-25.6 22.016 68.608 78.848zM93.184 82.432l68.608 78.848 26.112-23.040 16.384 124.928-121.344-33.792 26.112-22.016-68.608-78.848zM722.432 337.92l220.672 155.136c17.408 12.288 24.576 33.792 18.432 54.272-6.144 19.968-24.576 33.792-45.568 34.304l-272.896 3.072-84.48 263.68c-6.144 19.968-24.576 33.28-45.056 33.792h-1.024c-20.992 0.512-39.424-13.312-46.080-33.28l-88.064-261.12-275.456 3.072c-20.992 0.512-39.936-13.312-46.592-33.28s0.512-41.984 17.408-54.784l221.696-161.792-86.016-256c-6.656-19.968 0-41.984 16.896-54.272 16.896-12.8 39.936-12.8 56.832-1.024l223.744 157.184 224.256-163.84c8.192-6.144 17.92-9.216 28.16-9.216v0h0.512c10.24 0 19.968 3.072 28.672 9.216 16.896 12.288 24.064 33.792 17.92 54.272l-83.968 260.608zM507.904 263.168l-225.792-158.72 87.552 259.584-223.744 163.328 277.504-3.072 89.088 264.192 85.504-266.24 274.944-3.072-223.232-156.672 84.992-264.192-226.816 164.864z" />
<glyph unicode="&#xe96d;" glyph-name="uniE96D" d="M748.544 419.84l179.712 218.624c11.776 14.848 13.312 35.328 3.072 51.2s-29.696 23.552-47.616 18.432l-276.48-73.216-159.744 242.176c-10.24 15.36-29.184 23.040-47.616 17.92s-31.232-20.992-32.256-39.424l-15.36-288.256-279.040-74.24c-18.432-5.12-31.232-20.992-32.256-39.936s10.24-36.352 28.16-43.008l269.824-101.376-14.848-283.136c-1.024-18.944 10.24-36.352 27.648-43.008 5.12-2.048 10.752-3.072 15.872-3.072 12.8 0 25.088 5.632 33.792 15.872l181.76 221.696 272.384-102.4c8.704-3.072 17.92-3.584 26.624-1.536 9.216 2.56 16.896 7.68 23.040 14.848 11.776 14.848 12.8 35.328 2.56 51.2l-159.232 240.64zM565.76 278.016l-189.952-231.424 15.872 296.96-282.112 105.984 291.84 77.312 15.872 302.080 166.912-253.44 288.768 76.8-188.416-229.376 165.888-251.392-284.672 106.496zM188.416 673.28l70.656 81.408-54.784 47.104-70.656-81.408-27.136 23.552-16.896-128.512 125.44 34.816zM231.936 206.336l-70.656 80.896-54.784-47.104 70.656-81.408-26.624-23.040 125.44-34.304-16.896 128.512zM654.848 787.968l102.912-31.744 21.504 69.12-102.912 31.744 10.24 33.28-124.416-36.352 82.432-100.352zM985.6 509.44l-108.032-71.68 32.768-13.824-41.984-99.328 66.56-27.648 41.472 98.816 33.28-13.824zM644.096 67.072l-104.448-24.576 16.384-70.144 104.448 24.064 8.192-34.816 89.088 94.208-121.344 45.568z" />
<glyph unicode="&#xe96e;" glyph-name="uniE96E" d="M982.528 585.216c-3.072 9.216-11.776 15.872-21.504 15.872h-326.144l-100.864 310.272c-3.072 9.216-11.776 15.872-21.504 15.872s-18.432-6.144-21.504-15.872l-100.864-310.272h-326.144c-9.728 0-18.432-6.144-21.504-15.872-3.072-9.216 0.512-19.456 8.192-25.6l264.192-192-100.864-310.272c-3.072-9.216 0.512-19.456 8.192-25.6 8.192-5.632 18.944-5.632 26.624 0l264.192 192 264.192-192c4.096-3.072 8.704-4.608 13.312-4.608s9.216 1.536 13.312 4.608c8.192 5.632 11.264 15.872 8.192 25.6l-100.864 310.272 264.192 192c7.168 6.144 10.24 16.384 7.168 25.6v0zM670.208 395.264c-8.192-5.632-11.264-15.872-8.192-25.6l84.48-259.072-220.672 160.256c-4.096 3.072-8.704 4.608-13.824 4.096v555.52l84.48-259.072c3.072-9.216 11.776-15.872 21.504-15.872h272.896l-220.672-160.256z" />
<glyph unicode="&#xe96f;" glyph-name="effects" d="M809.472 432.128c55.296 17.92 62.464 62.464 18.944 98.304l-75.776 62.464c-44.032 35.84-79.872 112.64-80.384 168.96l-1.024 99.328c-0.512 56.832-39.936 78.336-87.552 47.616l-82.944-53.248c-47.616-30.72-131.072-42.496-184.832-25.088l-93.696 29.696c-53.76 17.408-86.528-13.824-71.68-69.12l25.088-95.744c14.336-55.296-0.512-138.24-33.792-184.832l-57.344-80.384c-33.28-46.592-13.312-87.040 43.008-90.624l97.792-5.632c56.832-3.584 130.56-43.52 163.84-89.088l58.368-79.36c33.792-45.568 78.336-39.936 98.304 13.312l35.328 92.16c20.48 53.248 80.896 111.104 135.168 129.536l93.184 31.744zM516.608 302.592c-27.136-56.32-77.824-58.88-111.616-7.168-34.816 52.224-114.688 101.376-177.664 109.056-62.976 8.192-81.92 53.248-40.96 101.376 40.448 47.616 64.512 136.704 52.224 197.632s26.624 92.16 86.528 69.632c59.904-22.528 153.6-16.896 209.92 13.312s99.328 4.096 95.232-57.856c-4.096-61.952 31.232-146.944 77.312-189.952 46.592-42.496 34.304-89.6-27.648-105.472-63.488-15.872-136.192-74.24-163.328-130.56zM984.064 38.912l-246.272 246.272c-14.848 14.848-39.424 14.848-54.272 0s-14.848-39.424 0-54.272l246.272-246.272c14.336-14.848 39.424-14.848 54.272 0s14.848 39.424 0 54.272z" />
</font>
</defs>
</svg>
